<svg width="24" height="24" viewBox="0 0 24 24" fill="none" xmlns="http://www.w3.org/2000/svg">
<path d="M20.7388 2.52536L20.7387 2.52534C20.4137 2.20027 20.0279 1.94241 19.6032 1.76648C19.1785 1.59055 18.7233 1.5 18.2637 1.5C17.804 1.5 17.3488 1.59055 16.9241 1.76648C16.4995 1.94241 16.1136 2.20027 15.7886 2.52534L14.0205 4.29259L13.667 3.93856L13.6666 3.93818C13.5272 3.79892 13.3618 3.68848 13.1798 3.61315C12.9977 3.53782 12.8026 3.49909 12.6056 3.49916C12.4086 3.49923 12.2136 3.5381 12.0316 3.61356C11.8496 3.68901 11.6842 3.79958 11.545 3.93893C11.4057 4.07829 11.2953 4.24371 11.2199 4.42575C11.1446 4.60779 11.1059 4.80288 11.106 4.99989C11.106 5.1969 11.1449 5.39197 11.2204 5.57395C11.2958 5.7559 11.4063 5.92121 11.5456 6.06044C11.5457 6.06047 11.5457 6.06051 11.5457 6.06054L17.2026 11.7164L17.2082 11.722L17.2139 11.7273C17.4979 11.994 17.8745 12.1398 18.264 12.1337C18.6535 12.1277 19.0254 11.9703 19.301 11.6949C19.5766 11.4196 19.7342 11.0478 19.7405 10.6582C19.7468 10.2687 19.6014 9.89202 19.3349 9.60784L19.3294 9.60198L19.3237 9.59631L18.9703 9.24286L20.7387 7.47441L20.7388 7.47436C21.3949 6.81801 21.7635 5.92793 21.7635 4.99986C21.7635 4.07178 21.3949 3.18171 20.7388 2.52536Z" fill="black" stroke="white"/>
<path d="M12.2836 6.73735L11.9301 6.38361L11.5764 6.73729L3.79863 14.5161C3.79856 14.5162 3.79849 14.5162 3.79842 14.5163C3.28632 15.028 2.94547 15.6858 2.82283 16.3993C2.72062 16.9939 2.77418 17.6028 2.9754 18.1673L1.64645 19.4963L1.29302 19.8497L1.64632 20.2032L3.06032 21.6182L3.41399 21.9722L3.76767 21.6183L5.09656 20.2885C5.66095 20.4898 6.26967 20.5435 6.86421 20.4415C7.57773 20.319 8.23573 19.9784 8.74755 19.4664C8.74758 19.4664 8.7476 19.4663 8.74762 19.4663L16.5256 11.6884L16.879 11.3349L16.5256 10.9814L12.2836 6.73735ZM5.92315 16.6338L11.93 10.6269L12.6369 11.3338L6.63004 17.3407C6.53602 17.4302 6.41084 17.4796 6.28094 17.4785C6.14985 17.4774 6.02444 17.4248 5.93173 17.3321C5.83903 17.2394 5.78645 17.114 5.78531 16.9829C5.78418 16.853 5.83364 16.7278 5.92315 16.6338Z" fill="black" stroke="white"/>
</svg>
