<svg width="64" height="63" viewBox="0 0 64 63" fill="none" xmlns="http://www.w3.org/2000/svg">
<path d="M27.86 21.6562C27.154 16.6261 23.653 13.7812 18 13.7812C11.645 13.7812 8 17.3693 8 23.625C8 29.8807 11.645 33.4688 18 33.4688C23.653 33.4688 27.154 30.6239 27.86 25.5938H42V33.4688H46V25.5938H51V33.4688H55V21.6562H27.86ZM18 29.5312C13.851 29.5312 12 27.7092 12 23.625C12 19.5408 13.851 17.7188 18 17.7188C22.149 17.7188 24 19.5408 24 23.625C24 27.7092 22.149 29.5312 18 29.5312Z" fill="#1A1918"/>
<path d="M12 41.3438C9.421 41.3438 8 42.7425 8 45.2812C8 47.82 9.421 49.2188 12 49.2188C14.579 49.2188 16 47.82 16 45.2812C16 42.7425 14.579 41.3438 12 41.3438Z" fill="#1A1918"/>
<path d="M25 41.3438C22.421 41.3438 21 42.7425 21 45.2812C21 47.82 22.421 49.2188 25 49.2188C27.579 49.2188 29 47.82 29 45.2812C29 42.7425 27.579 41.3438 25 41.3438Z" fill="#1A1918"/>
<path d="M38 41.3438C35.421 41.3438 34 42.7425 34 45.2812C34 47.82 35.421 49.2188 38 49.2188C40.579 49.2188 42 47.82 42 45.2812C42 42.7425 40.579 41.3438 38 41.3438Z" fill="#1A1918"/>
<path d="M51 41.3438C48.421 41.3438 47 42.7425 47 45.2812C47 47.82 48.421 49.2188 51 49.2188C53.579 49.2188 55 47.82 55 45.2812C55 42.7425 53.579 41.3438 51 41.3438Z" fill="#1A1918"/>
</svg>
