<svg width="64" height="64" viewBox="0 0 64 64" fill="none" xmlns="http://www.w3.org/2000/svg">
<path d="M43.6586 20.324C42.4691 21.5136 42.4691 22.67 43.6586 23.8596C44.8481 25.0491 46.0046 25.0491 47.1941 23.8596C48.3837 22.67 48.3837 21.5136 47.1941 20.324C46.0046 19.1345 44.8481 19.1345 43.6586 20.324Z" fill="#1E1919"/>
<path d="M33.7592 21.7381C32.5697 22.9276 32.5697 24.0841 33.7592 25.2736C34.9487 26.4632 36.1052 26.4632 37.2947 25.2736C38.4843 24.0841 38.4843 22.9276 37.2947 21.7381C36.1052 20.5486 34.9487 20.5486 33.7592 21.7381Z" fill="#1E1919"/>
<path d="M18.8973 41.5497L16.7753 39.4321L19.6007 36.6007L21.7258 38.7213L23.8597 36.5874L26.6881 39.4158L24.5572 41.5468L26.6792 43.6644L23.8538 46.4958L21.7287 44.3752L19.6171 46.4869L16.7886 43.6584L18.8973 41.5497Z" fill="#1E1919"/>
<path fill-rule="evenodd" clip-rule="evenodd" d="M20.2491 15.8295C18.9725 14.5529 18.9725 12.4832 20.2491 11.2066L22.0919 9.3638L19.2635 6.53537L17.4207 8.37817C14.582 11.2168 14.582 15.8193 17.4207 18.6579L19.1617 20.399C20.4339 21.6711 20.4383 23.7309 19.1751 25.0085L12.3131 31.8705C6.04626 38.1373 6.12242 44.306 12.5459 50.7295C18.9694 57.153 25.1381 57.2292 31.405 50.9624C35.8484 46.5189 37.103 42.1248 35.1671 37.6542L37.6544 35.167C42.125 37.1028 46.5191 35.8482 50.9625 31.4048C57.2293 25.138 57.1532 18.9693 50.7297 12.5458C44.3062 6.12227 38.1374 6.04611 31.8706 12.3129L23.7538 20.4298C23.4094 19.3845 22.8215 18.4019 21.9902 17.5706L20.2491 15.8295ZM21.9902 27.8503C21.9969 27.8436 22.0036 27.8368 22.0104 27.8301L34.699 15.1414C37.399 12.4414 39.5314 11.6497 41.192 11.6702C42.8794 11.691 45.0884 12.5613 47.9013 15.3742C50.7141 18.187 51.5844 20.396 51.6053 22.0834C51.6258 23.744 50.834 25.8764 48.1341 28.5764C46.2225 30.488 44.5834 31.4456 43.228 31.8297C41.9579 32.1896 40.6875 32.1215 39.2438 31.4963L36.7486 30.4159L30.416 36.7485L31.4965 39.2437C32.1216 40.6873 32.1898 41.9577 31.8298 43.2278C31.4457 44.5833 30.4882 46.2223 28.5765 48.1339C25.8766 50.8339 23.7442 51.6256 22.0836 51.6051C20.3962 51.5843 18.1872 50.7139 15.3743 47.9011C12.5615 45.0883 11.6912 42.8792 11.6703 41.1919C11.6498 39.5313 12.4415 37.3989 15.1415 34.6989L21.9902 27.8503Z" fill="#1E1919"/>
</svg>
