<svg width="64" height="64" viewBox="0 0 64 64" fill="none" xmlns="http://www.w3.org/2000/svg">
<path d="M56 52H8V56H56V52Z" fill="#1A1918"/>
<path d="M46 32H39V29.934C38.9967 28.9156 39.2542 27.9134 39.748 27.0227C40.2418 26.132 40.9555 25.3827 41.821 24.846L43 24.107V19C43 12.421 38.579 8 32 8C25.421 8 21 12.421 21 19V24.107L22.18 24.846C23.0453 25.3828 23.7588 26.1322 24.2524 27.0229C24.746 27.9135 25.0034 28.9157 25 29.934V32H18C15.3487 32.0029 12.8069 33.0574 10.9321 34.9321C9.05742 36.8069 8.00291 39.3487 8 42V48H56V42C55.9968 39.3488 54.9422 36.8071 53.0676 34.9324C51.1929 33.0578 48.6512 32.0032 46 32ZM52 44H12V42C12.0019 40.4093 12.6346 38.8842 13.7594 37.7594C14.8842 36.6346 16.4093 36.0019 18 36H29V29.934C29.0049 28.3807 28.6456 26.8478 27.951 25.4585C27.2563 24.0692 26.2456 22.862 25 21.934V19C25 14.683 27.682 12 32 12C36.318 12 39 14.683 39 19V21.934C37.7542 22.8618 36.7433 24.0689 36.0486 25.4583C35.3539 26.8477 34.9948 28.3806 35 29.934V36H46C47.5907 36.0019 49.1158 36.6346 50.2406 37.7594C51.3654 38.8842 51.9981 40.4093 52 42V44Z" fill="#1A1918"/>
</svg>
