<svg width="64" height="64" viewBox="0 0 64 64" fill="none" xmlns="http://www.w3.org/2000/svg">
<path d="M49.242 15.414L43.586 9.75799C43.0302 9.1989 42.369 8.75564 41.6406 8.45387C40.9123 8.15211 40.1314 7.99784 39.343 7.99999H13V56H51V19.657C51.0022 18.8686 50.8479 18.0877 50.5461 17.3594C50.2444 16.631 49.8011 15.9698 49.242 15.414ZM17 52V12H38V21H47V52H17Z" fill="#1E1919"/>
<path d="M34 28H30C28.9211 30.7605 26.8055 32.9896 24.105 34.211L25.894 37.789C27.3982 37.0454 28.7823 36.0803 30 34.926V46H34V34.926C35.2174 36.0806 36.6011 37.046 38.105 37.79L39.894 34.212C37.1934 32.9906 35.0779 30.761 34 28Z" fill="#1E1919"/>
</svg>
