<svg width="16" height="24" viewBox="0 0 16 24" fill="none" xmlns="http://www.w3.org/2000/svg">
<g clip-path="url(#clip0_3081_29351)">
<path d="M12.909 5.35002L12.651 5.09202C11.9473 4.38999 10.9938 3.99573 9.99975 3.99573C9.00571 3.99573 8.05225 4.38999 7.3485 5.09202L4.591 7.85002C3.88896 8.55377 3.49471 9.50723 3.49471 10.5013C3.49471 11.4953 3.88896 12.4488 4.591 13.1525L4.849 13.4105C5.4156 13.9785 6.15011 14.3489 6.9437 14.4668C7.7373 14.5847 8.54775 14.4438 9.255 14.065L9.288 14.032C9.41955 13.8867 9.4924 13.6978 9.4924 13.5018C9.4924 13.3058 9.41955 13.1168 9.288 12.9715C9.16622 12.8029 9.00595 12.6658 8.8205 12.5715C8.38826 12.887 7.85773 13.0381 7.32413 12.9977C6.79053 12.9573 6.2888 12.728 5.909 12.351L5.651 12.093C5.2298 11.6708 4.99327 11.0987 4.99327 10.5023C4.99327 9.90586 5.2298 9.33378 5.651 8.91152L8.409 6.15002C8.83126 5.72883 9.40334 5.49229 9.99975 5.49229C10.5962 5.49229 11.1682 5.72883 11.5905 6.15002L11.8485 6.40802C12.2328 6.7948 12.4632 7.30814 12.4969 7.85231C12.5306 8.39649 12.3652 8.93433 12.0315 9.36552C12.0915 9.42002 12.154 9.47152 12.212 9.52902L12.47 9.78702C12.6848 10.0031 12.8805 10.2373 13.055 10.487C13.6893 9.77316 14.0274 8.84418 14.0003 7.88958C13.9732 6.93499 13.5829 6.02671 12.909 5.35002Z" fill="#1E1919"/>
<path d="M11.15 10.5911C10.5838 10.0265 9.85215 9.65748 9.0616 9.53778C8.27105 9.41807 7.46293 9.55394 6.75499 9.92558L6.71099 9.96958C6.57039 10.1102 6.4914 10.301 6.4914 10.4998C6.4914 10.6987 6.57039 10.8894 6.71099 11.0301L6.96899 11.2881C7.02985 11.3479 7.1012 11.3961 7.17949 11.4301C7.61062 11.1121 8.1416 10.9594 8.67579 11C9.20998 11.0406 9.71183 11.2716 10.09 11.6511L10.348 11.9091C10.7692 12.3313 11.0057 12.9034 11.0057 13.4998C11.0057 14.0962 10.7692 14.6683 10.348 15.0906L7.59099 17.8501C7.16873 18.2713 6.59666 18.5078 6.00024 18.5078C5.40383 18.5078 4.83176 18.2713 4.40949 17.8501L4.15149 17.5921C3.76722 17.2053 3.53676 16.692 3.50309 16.1478C3.46942 15.6036 3.63484 15.0658 3.96849 14.6346C3.90849 14.5801 3.84599 14.5286 3.78799 14.4711L3.52999 14.2131C3.31521 13.996 3.1198 13.7606 2.94599 13.5096C2.3105 14.2235 1.97161 15.1532 1.99856 16.1086C2.02551 17.064 2.41627 17.9731 3.09099 18.6501L3.34899 18.9081C4.05268 19.6102 5.00616 20.0046 6.00024 20.0046C6.99433 20.0046 7.94781 19.6102 8.65149 18.9081L11.409 16.1501C12.111 15.4463 12.5053 14.4929 12.5053 13.4988C12.5053 12.5048 12.111 11.5513 11.409 10.8476L11.15 10.5911Z" fill="#1E1919"/>
</g>
<defs>
<clipPath id="clip0_3081_29351">
<rect width="16" height="24" fill="white"/>
</clipPath>
</defs>
</svg>
