<svg width="120" height="120" viewBox="0 0 120 120" fill="none" xmlns="http://www.w3.org/2000/svg">
<path d="M46.4352 10.3639C47.3054 10.0429 48.2347 9.9153 49.159 9.98988C50.0832 9.9153 51.0126 10.0429 51.8828 10.3639C52.753 10.6848 53.5433 11.1914 54.1989 11.8487C54.8546 12.506 55.36 13.2982 55.6802 14.1705C56.0003 15.0429 56.1276 15.9746 56.0532 16.9011C56.1276 17.8276 56.0003 18.7593 55.6802 19.6316C55.36 20.504 54.8546 21.2962 54.1989 21.9534C53.5433 22.6107 52.753 23.1173 51.8828 23.4383C51.0126 23.7592 50.0832 23.8868 49.159 23.8123C48.2347 23.8868 47.3054 23.7592 46.4352 23.4383C45.5649 23.1173 44.7747 22.6107 44.119 21.9534C43.4634 21.2962 42.958 20.504 42.6378 19.6316C42.3177 18.7593 42.1904 17.8276 42.2648 16.9011C42.1904 15.9746 42.3177 15.0429 42.6378 14.1705C42.958 13.2982 43.4634 12.506 44.119 11.8487C44.7747 11.1914 45.5649 10.6848 46.4352 10.3639Z" fill="#1A1918"/>
<path d="M95.3946 31.1585C93.5784 31.8333 91.5291 31.8666 89.3088 31.2865C86.6999 30.6049 85.4905 31.2942 84.8179 31.9496C83.9454 32.7996 83.4246 34.1741 83.2373 35.3721L77.3116 34.4377C77.6072 32.5469 78.4787 29.747 80.6288 27.6524C82.9787 25.363 86.4222 24.3373 90.8172 25.4855C92.0988 25.8204 92.8592 25.7007 93.298 25.5377C93.7406 25.3733 94.1384 25.0595 94.5117 24.5288C95.3415 23.3491 95.7294 21.5578 95.8818 20.1726L101.843 20.8368C101.666 22.4492 101.156 25.5136 99.4195 27.9826C98.5096 29.2762 97.2071 30.4851 95.3946 31.1585Z" fill="#1A1918"/>
<path d="M56.511 80.9739V81.8701C56.511 83.801 58.078 85.3663 60.011 85.3663H62.1188C64.0518 85.3663 65.6188 83.801 65.6188 81.8701V80.9739H71.6188V81.8701C71.6188 87.1111 67.3655 91.3598 62.1188 91.3598H60.011C54.7643 91.3598 50.511 87.1111 50.511 81.8701V80.9739H56.511Z" fill="#1A1918"/>
<path fill-rule="evenodd" clip-rule="evenodd" d="M86.5833 72.7572L61.0932 26.6747L35.533 72.7655H35.5375C35.0542 75.213 34.8137 77.9122 34.8137 80.8654C34.8137 98.5113 43.3999 107.088 61.0649 107.088C78.7298 107.088 87.316 98.5113 87.316 80.8654C87.316 77.9088 87.075 75.2069 86.5906 72.7572H86.5833ZM78.901 72.7655H43.2287C42.653 74.9261 42.314 77.5859 42.314 80.8654C42.314 88.587 44.193 92.8733 46.6184 95.2962C49.0439 97.719 53.3349 99.5959 61.0649 99.5959C68.7948 99.5959 73.0858 97.719 75.5113 95.2962C77.9367 92.8733 79.8157 88.587 79.8157 80.8654C79.8157 77.5859 79.4767 74.9261 78.901 72.7655ZM76.4177 66.772H60.4315C60.4456 66.6342 60.4528 66.4943 60.4528 66.3527C60.4528 64.1108 58.6399 62.2934 56.4035 62.2934C54.1671 62.2934 52.3542 64.1108 52.3542 66.3527C52.3542 66.4943 52.3614 66.6342 52.3755 66.772H45.7159L53.1395 53.3856C53.8765 54.3906 55.0643 55.0428 56.404 55.0428C58.6404 55.0428 60.4533 53.2254 60.4533 50.9835C60.4533 48.8469 58.8066 47.0958 56.7161 46.9361L61.0864 39.0554L69.4627 54.1984C67.4316 54.4166 65.8498 56.1403 65.8498 58.2344C65.8498 60.4763 67.6628 62.2937 69.8991 62.2937C71.1909 62.2937 72.3414 61.6873 73.0828 60.7431L76.4177 66.772Z" fill="#1A1918"/>
<path d="M29.1339 39.4879C27.9157 37.9253 27.2314 35.8954 27.0144 33.4869C26.8718 31.9035 26.4507 31.0701 26.1006 30.6343C25.7672 30.2194 25.3358 29.9602 24.7487 29.8189C23.4028 29.4947 21.5351 29.8833 20.1435 30.5159L17.6704 25.0565C19.6745 24.1455 22.991 23.2243 26.1617 23.9878C27.8329 24.3903 29.4928 25.2743 30.7768 26.8723C32.0441 28.4496 32.7664 30.4989 32.9862 32.9384C33.1317 34.553 33.5431 35.3824 33.8646 35.7948C34.1588 36.1722 34.5164 36.3829 34.9984 36.4923C36.1617 36.7563 37.8526 36.3563 39.1598 35.6884L41.88 41.0286C39.9828 41.9979 36.7764 43.048 33.6622 42.3413C32.0055 41.9653 30.3793 41.0855 29.1339 39.4879Z" fill="#1A1918"/>
</svg>
