<svg width="64" height="64" viewBox="0 0 64 64" fill="none" xmlns="http://www.w3.org/2000/svg">
<path d="M11.0407 47C10.9406 46.1935 11.0257 45.3747 11.2898 44.6061C11.5538 43.8374 11.9898 43.1392 12.5645 42.5645C13.1392 41.9898 13.8374 41.5538 14.6061 41.2898C15.3747 41.0257 16.1935 40.9405 17 41.0407C17.8065 40.9405 18.6253 41.0257 19.3939 41.2898C20.1626 41.5538 20.8608 41.9898 21.4355 42.5645C22.0102 43.1392 22.4462 43.8374 22.7102 44.6061C22.9743 45.3747 23.0595 46.1935 22.9593 47C23.0595 47.8065 22.9743 48.6253 22.7102 49.3939C22.4462 50.1626 22.0102 50.8608 21.4355 51.4355C20.8608 52.0102 20.1626 52.4462 19.3939 52.7102C18.6253 52.9743 17.8065 53.0594 17 52.9592C16.1935 53.0594 15.3747 52.9743 14.6061 52.7102C13.8374 52.4462 13.1392 52.0102 12.5645 51.4355C11.9898 50.8608 11.5538 50.1626 11.2898 49.3939C11.0257 48.6253 10.9406 47.8065 11.0407 47Z" fill="#1A1918"/>
<path d="M33.7884 53C34.2787 51.1285 34.5004 49.1107 34.5004 47C34.5004 41.8903 33.2009 37.3252 29.9381 34.0623C26.6752 30.7995 22.1101 29.5 17.0004 29.5C14.8895 29.5 12.8716 29.7218 11.0001 30.2121V34.3877C12.7104 33.7966 14.7112 33.5 17.0004 33.5C25.9583 33.5 30.5004 38.0421 30.5004 47C30.5004 49.2891 30.2038 51.2898 29.6128 53H33.7884Z" fill="#1A1918"/>
<path d="M46.1285 53C46.3788 51.0863 46.5 49.0832 46.5 47C46.5 37.909 44.1912 30.3439 38.9237 25.0764C33.6561 19.8088 26.0911 17.5 17 17.5C14.9168 17.5 12.9137 17.6212 11.0001 17.8715V21.9084C12.8672 21.6363 14.8674 21.5 17 21.5C33.9206 21.5 42.5 30.0795 42.5 47C42.5 49.1327 42.3638 51.1328 42.0916 53H46.1285Z" fill="#1A1918"/>
</svg>
