<svg width="64" height="64" viewBox="0 0 64 64" fill="none" xmlns="http://www.w3.org/2000/svg">
<path d="M48 42C47.0858 41.9902 46.1787 42.16 45.33 42.5L42.116 39.286C43.4349 37.0904 44.0893 34.5597 44 32C44.0897 29.4396 43.4353 26.9081 42.116 24.712L45.33 21.5C46.1787 21.84 47.0858 22.0098 48 22C51.7 22 54 19.7 54 16C54 12.3 51.7 10 48 10C44.3 10 42 12.3 42 16C41.9902 16.9142 42.16 17.8213 42.5 18.67L39.286 21.884C37.0904 20.5651 34.5597 19.9107 32 20C29.4396 19.9103 26.9081 20.5647 24.712 21.884L21.5 18.67C21.84 17.8213 22.0098 16.9142 22 16C22 12.3 19.7 10 16 10C12.3 10 10 12.3 10 16C10 19.7 12.3 22 16 22C16.9142 22.0098 17.8213 21.8399 18.67 21.5L21.884 24.714C20.5651 26.9096 19.9107 29.4403 20 32C19.9103 34.5604 20.5647 37.0919 21.884 39.288L18.67 42.5C17.8213 42.16 16.9142 41.9902 16 42C12.3 42 10 44.3 10 48C10 51.7 12.3 54 16 54C19.7 54 22 51.7 22 48C22.0098 47.0858 21.84 46.1787 21.5 45.33L24.714 42.116C26.9096 43.4349 29.4403 44.0893 32 44C34.5604 44.0897 37.0919 43.4353 39.288 42.116L42.5 45.33C42.1601 46.1787 41.9902 47.0858 42 48C42 51.7 44.3 54 48 54C51.7 54 54 51.7 54 48C54 44.3 51.7 42 48 42ZM48 14C49.514 14 50 14.486 50 16C50 17.514 49.514 18 48 18C46.486 18 46 17.514 46 16C46 14.486 46.486 14 48 14ZM16 18C14.486 18 14 17.514 14 16C14 14.486 14.486 14 16 14C17.514 14 18 14.486 18 16C18 17.514 17.514 18 16 18ZM16 50C14.486 50 14 49.514 14 48C14 46.486 14.486 46 16 46C17.514 46 18 46.486 18 48C18 49.514 17.514 50 16 50ZM24 32C24 26.542 26.542 24 32 24C37.458 24 40 26.542 40 32C40 37.458 37.458 40 32 40C26.542 40 24 37.458 24 32ZM48 50C46.486 50 46 49.514 46 48C46 46.486 46.486 46 48 46C49.514 46 50 46.486 50 48C50 49.514 49.514 50 48 50Z" fill="#1E1919"/>
</svg>
