<svg width="120" height="120" viewBox="0 0 120 120" fill="none" xmlns="http://www.w3.org/2000/svg">
<path d="M25.0547 28H45.0547V34H25.0547V28Z" fill="#1A1918"/>
<path fill-rule="evenodd" clip-rule="evenodd" d="M81.0004 25C81.0004 20.0294 76.971 16 72.0004 16H22C17.0294 16 13 20.0294 13 25V95.25C13 100.221 17.0294 104.25 22 104.25H72.0004C76.971 104.25 81.0004 100.221 81.0004 95.25V95H92.0004C96.971 95 101 90.9706 101 86V46H107V28H104V22.0438H92.0004V28H89.0004V46H95.0004V86C95.0004 87.6569 93.6573 89 92.0004 89H81.0004V25ZM72.0004 22C73.6573 22 75.0004 23.3431 75.0004 25V95.25C75.0004 96.9069 73.6573 98.25 72.0004 98.25H22C20.3431 98.25 19 96.9069 19 95.25V25C19 23.3431 20.3431 22 22 22H72.0004ZM101 34V40H95.0004V34H101Z" fill="#1A1918"/>
</svg>
