<svg width="120" height="120" viewBox="0 0 120 120" fill="none" xmlns="http://www.w3.org/2000/svg">
<path fill-rule="evenodd" clip-rule="evenodd" d="M75.1613 41.3011C69.0275 41.3011 64.625 44.1736 62.1327 48.4879C59.9318 52.2979 59.4946 56.7327 59.4946 60C59.4946 63.2673 59.9318 67.7021 62.1327 71.5121C62.3557 71.8981 62.594 72.2725 62.8474 72.6344H62.5269C51.3624 72.6344 42.3118 81.685 42.3118 92.8495V107H107V92.8495C107 81.9133 98.3158 73.0055 87.4672 72.6457C87.7236 72.2803 87.9645 71.9021 88.1898 71.5121C90.3908 67.7021 90.828 63.2673 90.828 60C90.828 56.7327 90.3908 52.2979 88.1898 48.4879C85.6976 44.1736 81.2951 41.3011 75.1613 41.3011ZM75.1613 72.6344C83.0978 72.6344 84.7634 65.7635 84.7634 60C84.7634 54.2365 83.0978 47.3656 75.1613 47.3656C67.2247 47.3656 65.5591 54.2365 65.5591 60C65.5591 65.7635 67.2247 72.6344 75.1613 72.6344ZM62.5269 78.6989C54.7118 78.6989 48.3763 85.0343 48.3763 92.8495V100.935H100.935V92.8495C100.935 85.0343 94.6001 78.6989 86.7849 78.6989H62.5269Z" fill="#1E1919"/>
<path fill-rule="evenodd" clip-rule="evenodd" d="M32.8209 20.1869C35.3132 15.8725 39.7157 13 45.8495 13C51.9832 13 56.3857 15.8725 58.878 20.1869C61.079 23.9968 61.5161 28.4316 61.5161 31.6989C61.5161 33.988 61.3016 36.85 60.4162 39.6688C59.5309 42.4876 54.2218 50.3979 54.2218 50.3979H33.2151C25.3999 50.3979 19.0645 56.7333 19.0645 64.5484V72.6344H41.3835L37.8822 78.6989H13V64.5484C13 53.3839 22.0506 44.3333 33.2151 44.3333H33.5356C33.2822 43.9714 33.0439 43.597 32.8209 43.211C30.62 39.401 30.1828 34.9662 30.1828 31.6989C30.1828 28.4316 30.62 23.9968 32.8209 20.1869ZM55.4516 31.6989C55.4516 37.4624 53.786 44.3333 45.8495 44.3333C37.9129 44.3333 36.2473 37.4624 36.2473 31.6989C36.2473 25.9354 37.9129 19.0645 45.8495 19.0645C53.786 19.0645 55.4516 25.9354 55.4516 31.6989Z" fill="#1E1919"/>
</svg>
