<svg width="64" height="64" viewBox="0 0 64 64" fill="none" xmlns="http://www.w3.org/2000/svg">
<path fill-rule="evenodd" clip-rule="evenodd" d="M39.9998 58H23.9998V54H39.9998V58Z" fill="#1E1919"/>
<path fill-rule="evenodd" clip-rule="evenodd" d="M23.9998 46.6636C18.6308 44.4863 15.9998 39.6341 15.9998 32C15.9998 21.2332 21.233 16 31.9998 16C42.7665 16 47.9998 21.2332 47.9998 32C47.9998 39.6341 45.3688 44.4863 39.9998 46.6636V50H23.9998V46.6636ZM22.7907 41.2091C24.1754 42.5939 26.4046 43.6449 29.9999 43.9257V38.8284L25.5857 34.4142L28.4141 31.5858L31.9999 35.1716L35.5857 31.5858L38.4141 34.4142L33.9999 38.8284V43.9257C37.5951 43.6449 39.8242 42.5938 41.2089 41.2091C42.8342 39.5838 43.9998 36.7954 43.9998 32C43.9998 27.2046 42.8342 24.4162 41.2089 22.7909C39.5836 21.1656 36.7952 20 31.9998 20C27.2044 20 24.416 21.1656 22.7907 22.7909C21.1654 24.4162 19.9998 27.2046 19.9998 32C19.9998 36.7954 21.1654 39.5838 22.7907 41.2091Z" fill="#1E1919"/>
<path fill-rule="evenodd" clip-rule="evenodd" d="M33.9998 6V12H29.9998V6L33.9998 6Z" fill="#1E1919"/>
<path fill-rule="evenodd" clip-rule="evenodd" d="M15.4138 15.5858L11.1712 11.3431L8.34277 14.1716L12.5854 18.4142L15.4138 15.5858Z" fill="#1E1919"/>
<path fill-rule="evenodd" clip-rule="evenodd" d="M48.5857 15.5858L52.8284 11.3431L55.6568 14.1716L51.4141 18.4142L48.5857 15.5858Z" fill="#1E1919"/>
</svg>
