<svg width="120" height="120" viewBox="0 0 120 120" fill="none" xmlns="http://www.w3.org/2000/svg">
<path d="M81 53V47H75.028C69.1877 46.9934 63.5885 44.6703 59.4588 40.5405C55.3292 36.4107 53.0064 30.8113 53 24.971V19H47V24.971C46.9936 30.8115 44.6707 36.411 40.5408 40.5408C36.411 44.6707 30.8115 46.9936 24.971 47H19V53H24.971C30.8115 53.0064 36.411 55.3293 40.5408 59.4592C44.6707 63.589 46.9936 69.1885 47 75.029V81H53V75.029C53.0064 69.1887 55.3292 63.5893 59.4588 59.4595C63.5885 55.3297 69.1877 53.0066 75.028 53H81ZM50 62.419C47.2868 57.0637 42.9363 52.7132 37.581 50C42.9363 47.2868 47.2868 42.9363 50 37.581C52.7132 42.9363 57.0637 47.2868 62.419 50C57.0637 52.7132 52.7132 57.0637 50 62.419Z" fill="#1E1919"/>
<path d="M98.28 81C95.2894 80.9966 92.4223 79.807 90.3076 77.6924C88.193 75.5777 87.0034 72.7106 87 69.72V67H81V69.72C80.9966 72.7106 79.807 75.5777 77.6924 77.6924C75.5777 79.807 72.7106 80.9966 69.72 81H67V87H69.72C72.7106 87.0034 75.5777 88.193 77.6924 90.3076C79.807 92.4223 80.9966 95.2894 81 98.28V101H87V98.28C87.0034 95.2894 88.193 92.4223 90.3076 90.3076C92.4223 88.193 95.2894 87.0034 98.28 87H101V81H98.28ZM84 88.56C82.777 86.7695 81.2305 85.223 79.44 84C81.2305 82.777 82.777 81.2305 84 79.44C85.223 81.2305 86.7695 82.777 88.56 84C86.7695 85.223 85.223 86.7695 84 88.56Z" fill="#1E1919"/>
</svg>
