<svg width="64" height="64" viewBox="0 0 64 64" fill="none" xmlns="http://www.w3.org/2000/svg">
<path fill-rule="evenodd" clip-rule="evenodd" d="M21.3528 39.8188L30.5452 30.6264L39.7376 21.434L42.566 24.2624L24.1812 42.6472L21.3528 39.8188Z" fill="#1E1919"/>
<path fill-rule="evenodd" clip-rule="evenodd" d="M24.1812 21.3528L42.566 39.7376L39.7376 42.566L21.3528 24.1812L24.1812 21.3528Z" fill="#1E1919"/>
<path fill-rule="evenodd" clip-rule="evenodd" d="M16.8323 47.1677C19.7628 50.0982 24.5254 51.9149 32 51.9149C39.4746 51.9149 44.2372 50.0982 47.1677 47.1677C50.0982 44.2372 51.9149 39.4746 51.9149 32C51.9149 24.5254 50.0982 19.7628 47.1677 16.8323C44.2372 13.9018 39.4746 12.0851 32 12.0851C24.5254 12.0851 19.7628 13.9018 16.8323 16.8323C13.9018 19.7628 12.0851 24.5254 12.0851 32C12.0851 39.4746 13.9018 44.2372 16.8323 47.1677ZM8 32C8 48.1502 15.8498 56 32 56C48.1502 56 56 48.1502 56 32C56 15.8498 48.1502 8 32 8C15.8498 8 8 15.8498 8 32Z" fill="#1E1919"/>
</svg>
