<svg width="64" height="64" viewBox="0 0 64 64" fill="none" xmlns="http://www.w3.org/2000/svg">
<path d="M32 8C16.523 8 8 16.523 8 32C8 47.477 16.523 56 32 56C47.477 56 56 47.477 56 32C56 16.523 47.477 8 32 8ZM32 52C18.729 52 12 45.271 12 32C12 18.729 18.729 12 32 12C45.271 12 52 18.729 52 32C52 45.271 45.271 52 32 52Z" fill="#1E1919"/>
<path d="M41 20C37.939 20 35.6 21.377 34.574 23.877C32.9213 23.2197 31.0797 23.2197 29.427 23.877C28.4 21.377 26.061 20 23 20C18.837 20 16 22.539 16 27C16 31.461 18.837 34 23 34C24.1738 34.0752 25.3466 33.8371 26.3981 33.3099C27.4495 32.7828 28.342 31.9856 28.984 31H29V30.972C29.4895 30.1329 29.8006 29.2018 29.914 28.237C30.4706 27.6897 31.2199 27.383 32.0005 27.383C32.7811 27.383 33.5304 27.6897 34.087 28.237C34.2001 29.2017 34.5109 30.1328 35 30.972V31H35.016C35.658 31.9856 36.5505 32.7828 37.6019 33.3099C38.6534 33.8371 39.8262 34.0752 41 34C45.163 34 48 31.461 48 27C48 22.539 45.163 20 41 20Z" fill="#1E1919"/>
<path d="M36 41H29V45H36C38.121 44.9976 40.1544 44.154 41.6542 42.6542C43.154 41.1544 43.9976 39.121 44 37H40C40 38.0609 39.5786 39.0783 38.8284 39.8284C38.0783 40.5786 37.0609 41 36 41Z" fill="#1E1919"/>
</svg>
