<svg width="120" height="120" viewBox="0 0 120 120" fill="none" xmlns="http://www.w3.org/2000/svg">
<path fill-rule="evenodd" clip-rule="evenodd" d="M81.61 37.0135C87.0761 42.0365 90.8046 48.1031 92.3504 52.0908C94.0123 56.3783 94.7488 62.6143 94.2178 69.0853C93.6842 75.5875 91.844 82.6692 88.0275 88.5674C80.8428 99.6709 71.935 107 60.5315 107C51.6861 107 45.4764 102.33 43.1822 99.5912C41.3198 97.6969 40.0021 95.1996 39.0699 92.7885C38.1057 90.2948 37.4724 87.679 37.0963 85.4427L37.0908 85.4098L37.086 85.3769C36.4962 81.3213 36.7552 77.1875 37.8467 73.2373C38.9283 69.3229 40.804 65.6734 43.3566 62.5159C44.4913 60.9114 45.9657 59.5761 47.6754 58.6053C49.4199 57.6147 51.3646 57.029 53.366 56.8914L53.3834 56.8902L53.4009 56.8892C55.1945 56.7868 56.9815 57.1815 58.5651 58.0299C60.1487 58.8782 61.4674 60.1473 62.3759 61.6972L62.4199 61.7723L62.4595 61.8498C63.1028 63.1097 63.4675 64.4933 63.5287 65.9066C63.5899 67.3199 63.3461 68.7298 62.814 70.0405L62.7625 70.1676L57.8498 79.6735C57.6277 80.302 57.5322 80.9688 57.5695 81.6354C57.6079 82.3217 57.7862 82.9926 58.0932 83.607C58.5317 84.3156 59.1512 84.8951 59.8885 85.2856C60.6343 85.6806 61.4725 85.8672 62.3148 85.8261C64.4454 85.5932 65.8867 83.8275 67.9186 80.661L67.937 80.6323L67.9561 80.6039C71.189 75.8094 73.0949 70.2455 73.4817 64.4778C73.346 62.0855 72.6979 59.7495 71.5808 57.6282C70.4386 55.4597 68.8341 53.5684 66.8805 52.0883L66.871 52.0812L66.8616 52.0739C62.209 48.4904 54.8581 48.5069 48.4987 50.3972C45.0146 51.4769 41.7682 53.2109 38.9335 55.5065L38.921 55.5166L38.9085 55.5265C34.9572 58.6571 31.8821 62.2947 29.9017 67.5572C27.463 75.6035 27.3677 84.1789 29.6281 92.2785C30.0734 93.8744 29.1407 95.5292 27.5449 95.9745C25.949 96.4199 24.2942 95.4872 23.8489 93.8913C21.2726 84.6598 21.3909 74.8839 24.1899 65.7174L24.2164 65.6305L24.2482 65.5454C26.6809 59.0209 30.5264 54.5153 35.1699 50.8336C38.5994 48.0591 42.5264 45.9639 46.7408 44.6605L46.7559 44.6558L46.771 44.6513C53.8234 42.5511 63.5771 41.9781 70.5133 47.3131C73.1631 49.3229 75.3397 51.8896 76.8895 54.8323C78.4411 57.7785 79.3266 61.0296 79.4834 64.3557L79.4911 64.5191L79.4809 64.6823C79.0546 71.5649 76.8001 78.2089 72.9503 83.9294C72.9278 83.9646 72.9051 84 72.8821 84.0358C71.1238 86.7782 68.2366 91.2814 62.8393 91.8037L62.7853 91.809L62.7312 91.8122C60.7709 91.9306 58.8158 91.507 57.0803 90.5879C55.3448 89.6688 53.8959 88.2895 52.8924 86.6014L52.8493 86.529L52.8104 86.4543C52.0863 85.0641 51.6665 83.5357 51.5789 81.9707C51.4913 80.4056 51.7379 78.8399 52.3024 77.3775L52.3611 77.2254L57.2972 67.6741C57.4758 67.1926 57.5565 66.6799 57.5343 66.1661C57.5116 65.6421 57.3823 65.1286 57.1547 64.6568C56.8069 64.0937 56.3162 63.6318 55.7318 63.3188C55.1267 62.9946 54.4444 62.8424 53.7591 62.8785C52.6615 62.9568 51.5951 63.2794 50.6381 63.8228C49.6756 64.3693 48.8483 65.1252 48.2174 66.0345L48.1515 66.1294L48.0785 66.219C46.015 68.752 44.5002 71.6861 43.63 74.8353C42.7627 77.9739 42.5547 81.2579 43.0188 84.4807C43.3451 86.4091 43.8848 88.6039 44.6661 90.6248C45.4654 92.6919 46.439 94.3714 47.5206 95.4449L47.6354 95.5588L47.7372 95.6843C49.0067 97.2494 53.6561 101 60.5315 101C68.9519 101 76.272 95.6903 82.99 85.3079C86.1249 80.4632 87.7604 74.4132 88.2379 68.5946C88.7179 62.7449 88.0009 57.4711 86.756 54.2594C85.5468 51.1399 82.3477 45.84 77.5502 41.4315C72.7748 37.0432 66.7118 33.7974 59.7169 34.072C47.0694 34.5684 41.3832 37.0077 40.3353 37.6627C38.9303 38.5408 37.0794 38.1137 36.2013 36.7087C35.3232 35.3037 35.7503 33.4528 37.1553 32.5747C39.4777 31.1232 46.3711 28.5912 59.4816 28.0766C68.5855 27.7192 76.1219 31.9703 81.61 37.0135Z" fill="#1E1919"/>
<path fill-rule="evenodd" clip-rule="evenodd" d="M55.549 13.0935C59.3311 12.9748 63.4249 12.9089 67.4915 13.634C78.9167 15.6712 93.4694 22.5997 101.133 37.5342C101.889 39.0083 101.307 40.8165 99.8333 41.573C98.3592 42.3294 96.551 41.7476 95.7946 40.2735C89.2417 27.503 76.6489 21.3614 66.4383 19.5409C63.0521 18.9371 59.5218 18.9717 55.7373 19.0905C54.0813 19.1425 52.6967 17.8422 52.6447 16.1862C52.5927 14.5301 53.893 13.1455 55.549 13.0935Z" fill="#1E1919"/>
</svg>
