<svg width="64" height="64" viewBox="0 0 64 64" fill="none" xmlns="http://www.w3.org/2000/svg">
<path fill-rule="evenodd" clip-rule="evenodd" d="M17.2085 9H46.556L46.7526 10.7805C46.7606 10.8535 46.7685 10.9271 46.7763 11.0013C48.7283 11.0373 50.6077 11.8013 51.9029 13.1376C53.276 14.5542 53.9571 16.6047 53.2795 18.8151C52.1372 22.5413 49.5014 26.5653 44.7248 28.6833C43.7961 30.9379 42.502 33.0437 40.7098 34.6904C38.9166 36.3379 36.6878 37.4654 33.9999 37.8522V43H38.9999C42.3136 43 44.9999 45.6863 44.9999 49L44.9999 55L18.9999 55V49C18.9999 45.6863 21.6862 43 24.9999 43H29.9999V37.8524C27.3089 37.4661 25.0703 36.3403 23.2619 34.6983C21.422 33.0277 20.0893 30.8819 19.1313 28.5845C14.4973 26.4466 11.8592 22.4996 10.6843 18.8316C9.97755 16.625 10.6418 14.5669 12.0114 13.1435C13.2692 11.8361 15.088 11.0758 16.9879 11.0054C16.9957 10.9298 17.0037 10.8548 17.0119 10.7805L17.2085 9ZM16.7801 15.0321C15.9772 15.1369 15.3079 15.4864 14.8939 15.9168C14.4447 16.3836 14.2774 16.9363 14.4937 17.6115C15.0455 19.3344 15.9928 21.0812 17.407 22.5409C16.9466 19.9702 16.7709 17.3779 16.7801 15.0321ZM31.9999 33.9994C34.6005 33.9739 36.524 33.1041 38.0035 31.7448C39.5267 30.3454 40.6727 28.3363 41.4831 25.9361C42.8847 21.7853 43.1575 16.8373 42.927 13H20.8409C20.6244 16.8253 20.9445 21.7676 22.3924 25.9169C23.2301 28.3175 24.4033 30.3319 25.9508 31.7369C27.4557 33.1033 29.3984 33.9739 31.9999 33.9994ZM46.3837 22.7995C47.9078 21.2999 48.8979 19.4606 49.4551 17.6428C49.6644 16.9602 49.4907 16.3961 49.0307 15.9215C48.5863 15.463 47.8605 15.099 46.9976 15.0172C47.0212 17.444 46.8556 20.1378 46.3837 22.7995ZM24.9999 47C23.8953 47 22.9999 47.8954 22.9999 49V51L40.9999 51V49C40.9999 47.8954 40.1044 47 38.9999 47H24.9999Z" fill="#1E1919"/>
</svg>
