<svg width="64" height="64" viewBox="0 0 64 64" fill="none" xmlns="http://www.w3.org/2000/svg">
<path d="M31.029 16L27.823 11.513C27.2673 10.7365 26.5347 10.1035 25.6857 9.66649C24.8367 9.22948 23.8959 9.00101 22.941 9H8V44C8.00185 45.5907 8.63459 47.1158 9.75941 48.2406C10.8842 49.3654 12.4093 49.9981 14 50H26V46H14C13.4696 46 12.9609 45.7893 12.5858 45.4142C12.2107 45.0391 12 44.5304 12 44V13H22.941C23.2592 13 23.5729 13.076 23.8558 13.2215C24.1388 13.3671 24.383 13.5781 24.568 13.837L28.971 20H52V44C52 44.5304 51.7893 45.0391 51.4142 45.4142C51.0391 45.7893 50.5304 46 50 46H38V50H50C51.5907 49.9981 53.1158 49.3654 54.2406 48.2406C55.3654 47.1158 55.9981 45.5907 56 44V16H31.029Z" fill="#1E1919"/>
<path d="M39.895 38.211C37.1942 36.99 35.0784 34.7608 34 32H30C28.9211 34.7605 26.8055 36.9896 24.105 38.211L25.894 41.789C27.3982 41.0454 28.7823 40.0803 30 38.926V50H34V38.926C35.2174 40.0806 36.6011 41.046 38.105 41.79L39.895 38.211Z" fill="#1E1919"/>
</svg>
