<svg width="64" height="64" viewBox="0 0 64 64" fill="none" xmlns="http://www.w3.org/2000/svg">
<path d="M43 30V24.333L48 21L42.942 17.628C42.442 11.489 38.518 8 32 8C25.01 8 21 12.01 21 19V33.172L17.828 30H8V32C8 47.477 16.523 56 32 56C47.477 56 56 47.477 56 32V30H43ZM32 12C36.775 12 39 14.225 39 19V30H30.172L25 35.172V19C25 14.225 27.225 12 32 12ZM32 52C19.413 52 12.712 45.946 12.054 34H16.172L24 41.828L31.828 34H51.946C51.288 45.946 44.587 52 32 52Z" fill="#1E1919"/>
<path d="M32 22C32.3352 22.027 32.6722 21.9809 32.9878 21.8648C33.3033 21.7487 33.5899 21.5655 33.8277 21.3277C34.0655 21.0899 34.2487 20.8033 34.3648 20.4878C34.4809 20.1722 34.527 19.8352 34.5 19.5C34.527 19.1648 34.4809 18.8278 34.3648 18.5122C34.2487 18.1967 34.0655 17.9101 33.8277 17.6723C33.5899 17.4345 33.3033 17.2513 32.9878 17.1352C32.6722 17.0191 32.3352 16.973 32 17C31.6648 16.973 31.3278 17.0191 31.0122 17.1352C30.6967 17.2513 30.4101 17.4345 30.1723 17.6723C29.9345 17.9101 29.7513 18.1967 29.6352 18.5122C29.5191 18.8278 29.473 19.1648 29.5 19.5C29.473 19.8352 29.5191 20.1722 29.6352 20.4878C29.7513 20.8033 29.9345 21.0899 30.1723 21.3277C30.4101 21.5655 30.6967 21.7487 31.0122 21.8648C31.3278 21.9809 31.6648 22.027 32 22Z" fill="#1E1919"/>
</svg>
