<svg width="64" height="64" viewBox="0 0 64 64" fill="none" xmlns="http://www.w3.org/2000/svg">
<path fill-rule="evenodd" clip-rule="evenodd" d="M24 16H40V22.0151H24V16ZM20 22.0151V12H44V22.0151H54V40.717C54 44.0307 51.3137 46.717 48 46.717H44V52.0189H20V46.717H16C12.6863 46.717 10 44.0307 10 40.717V22.0151H20ZM20 26.0151H14V40.717C14 41.8216 14.8954 42.717 16 42.717H20V32.0189H44V42.717H48C49.1046 42.717 50 41.8216 50 40.717V26.0151H44V26.017H20V26.0151ZM40 48.0189H24V36.0189H40V48.0189Z" fill="#1A1918"/>
</svg>
