<svg width="120" height="120" viewBox="0 0 120 120" fill="none" xmlns="http://www.w3.org/2000/svg">
<path d="M29.5341 104.933L11.0181 94.963L20.6091 85.373C22.7204 83.2668 24.2163 80.6238 24.9352 77.7294C25.6541 74.8351 25.5686 71.7993 24.6881 68.95L23.5881 65.371L73.9551 15.9C76.3609 13.5142 79.6065 12.1673 82.9946 12.1486C86.3828 12.1299 89.6431 13.4409 92.0751 15.8L103.85 27.122C105.082 28.3067 106.069 29.7227 106.753 31.2892C107.438 32.8556 107.806 34.5416 107.838 36.2507C107.87 37.9597 107.565 39.6583 106.939 41.2492C106.314 42.8401 105.381 44.2921 104.194 45.522L54.8701 96.643L51.2701 95.537C48.4207 94.6565 45.385 94.5711 42.4907 95.29C39.5963 96.0089 36.9533 97.5047 34.8471 99.616L29.5341 104.933ZM20.9641 93.5L28.4481 97.53L30.6091 95.369C33.4853 92.4851 37.0949 90.4421 41.0479 89.4606C45.0009 88.4791 49.1469 88.5965 53.0381 89.8L53.1121 89.822L99.8761 41.359C100.515 40.6968 101.017 39.915 101.354 39.0584C101.691 38.2019 101.855 37.2873 101.838 36.3671C101.821 35.4469 101.622 34.5392 101.254 33.6958C100.886 32.8524 100.354 32.0899 99.6911 31.452L87.9171 20.131C86.6074 18.8607 84.8517 18.1547 83.0272 18.1646C81.2027 18.1745 79.4549 18.8996 78.1591 20.184L30.4001 67.1L30.4271 67.191C31.63 71.0823 31.7469 75.2284 30.7651 79.1813C29.7832 83.1343 27.74 86.7438 24.8561 89.62L20.9641 93.5Z" fill="#1A1918"/>
<path d="M37.1123 57.113L32.8704 61.3549L59.8706 88.3551L64.1125 84.1131L37.1123 57.113Z" fill="#1A1918"/>
<path d="M70.1123 24.1129L65.8704 28.3549L92.8706 55.355L97.1125 51.1131L70.1123 24.1129Z" fill="#1A1918"/>
<path d="M26.9911 85.234L35.9911 94.234L27.9911 98.234L19.9911 94.234L26.9911 85.234Z" fill="#1A1918"/>
<path d="M27.9911 101.588L15.3771 95.28L26.7101 80.709L41.0561 95.056L27.9911 101.588ZM24.6051 93.188L27.9911 94.88L30.9271 93.412L27.2731 89.759L24.6051 93.188Z" fill="#1A1918"/>
</svg>
