<svg width="120" height="120" viewBox="0 0 120 120" fill="none" xmlns="http://www.w3.org/2000/svg">
<path fill-rule="evenodd" clip-rule="evenodd" d="M9 107H111L60 13L9 107ZM19.0815 101H100.918L60 25.5816L19.0815 101Z" fill="#1E1919"/>
<path d="M60 83.0089C59.599 82.9767 59.1958 83.0319 58.8183 83.1708C58.4407 83.3097 58.0979 83.529 57.8134 83.8134C57.529 84.0979 57.3097 84.4407 57.1708 84.8183C57.0319 85.1958 56.9767 85.599 57.009 86C56.9767 86.401 57.0319 86.8042 57.1708 87.1817C57.3097 87.5593 57.529 87.9021 57.8134 88.1866C58.0979 88.471 58.4407 88.6903 58.8183 88.8292C59.1958 88.9681 59.599 89.0233 60 88.9911C60.401 89.0233 60.8042 88.9681 61.1817 88.8292C61.5593 88.6903 61.9021 88.471 62.1866 88.1866C62.471 87.9021 62.6903 87.5593 62.8292 87.1817C62.9681 86.8042 63.0233 86.401 62.9911 86C63.0233 85.599 62.9681 85.1958 62.8292 84.8183C62.6903 84.4407 62.471 84.0979 62.1866 83.8134C61.9021 83.529 61.5593 83.3097 61.1817 83.1708C60.8042 83.0319 60.401 82.9767 60 83.0089Z" fill="#1E1919"/>
<path d="M63 80V57H57V80C58.9653 79.4591 61.0347 79.4591 63 80Z" fill="#1E1919"/>
</svg>
