<svg width="120" height="120" viewBox="0 0 120 120" fill="none" xmlns="http://www.w3.org/2000/svg">
<path d="M60 45C47.607 45 40.5 52.107 40.5 64.5C40.5 76.893 47.607 84 60 84C72.393 84 79.5 76.893 79.5 64.5C79.5 52.107 72.393 45 60 45ZM60 78C50.79 78 46.5 73.71 46.5 64.5C46.5 55.29 50.79 51 60 51C69.21 51 73.5 55.29 73.5 64.5C73.5 73.71 69.21 78 60 78Z" fill="#1A1918"/>
<path d="M83.576 34L74.712 19H45.288L36.424 34H13V88C13.004 91.4466 14.3749 94.7509 16.812 97.188C19.2491 99.6251 22.5534 100.996 26 101H94C97.4466 100.996 100.751 99.6251 103.188 97.188C105.625 94.7509 106.996 91.4466 107 88V34H83.576ZM101 88C100.998 89.8559 100.26 91.6351 98.9474 92.9474C97.6351 94.2597 95.8559 94.9979 94 95H26C24.1441 94.9979 22.3649 94.2597 21.0526 92.9474C19.7403 91.6351 19.0021 89.8559 19 88V40H39.848L48.712 25H71.288L80.152 40H101V88Z" fill="#1A1918"/>
<path d="M29.5 46C28.8967 45.9514 28.2901 46.0345 27.722 46.2434C27.154 46.4524 26.6382 46.7822 26.2102 47.2102C25.7822 47.6382 25.4524 48.154 25.2434 48.722C25.0345 49.2901 24.9514 49.8967 25 50.5C24.9514 51.1033 25.0345 51.7099 25.2434 52.278C25.4524 52.846 25.7822 53.3618 26.2102 53.7898C26.6382 54.2178 27.154 54.5476 27.722 54.7566C28.2901 54.9655 28.8967 55.0486 29.5 55C30.1033 55.0486 30.7099 54.9655 31.278 54.7566C31.846 54.5476 32.3618 54.2178 32.7898 53.7898C33.2178 53.3618 33.5476 52.846 33.7566 52.278C33.9655 51.7099 34.0486 51.1033 34 50.5C34.0486 49.8967 33.9655 49.2901 33.7566 48.722C33.5476 48.154 33.2178 47.6382 32.7898 47.2102C32.3618 46.7822 31.846 46.4524 31.278 46.2434C30.7099 46.0345 30.1033 45.9514 29.5 46Z" fill="#1A1918"/>
<path d="M95 46H84V52H95V46Z" fill="#1A1918"/>
</svg>
