<svg width="120" height="120" viewBox="0 0 120 120" fill="none" xmlns="http://www.w3.org/2000/svg">
<path d="M60 77C73.542 77 81 69.542 81 56V34C81 20.458 73.542 13 60 13C46.458 13 39 20.458 39 34V56C39 69.542 46.458 77 60 77ZM60 19C68.254 19 73.034 22.285 74.5 29H66V35H75V42H66V48H75V55H66V61H74.5C73.03 67.715 68.249 71 60 71C51.751 71 46.966 67.715 45.5 61H54V55H45V48H54V42H45V35H54V29H45.5C46.966 22.285 51.746 19 60 19Z" fill="#1A1918"/>
<path d="M98 55.621H92C92 77.106 81.233 88 60 88C38.767 88 28 77.106 28 55.621H22C22 79.339 34.4 92.836 57 93.921V107H63V93.92C85.6 92.835 98 79.338 98 55.621Z" fill="#1A1918"/>
</svg>
