<svg width="120" height="120" viewBox="0 0 120 120" fill="none" xmlns="http://www.w3.org/2000/svg">
<path fill-rule="evenodd" clip-rule="evenodd" d="M107 13H13V95.0131C13 101.633 18.3667 107 24.9869 107H95.0131C101.633 107 107 101.633 107 95.0131V13ZM19 95.0131V19L51 19V25H60V31H51V37H60V43H51V49H60V55H51V78.0028C51 84.2272 53.7756 87.0028 59.9999 87.0028C66.2242 87.0028 69 84.2272 69 78.0028V61H60V55H69V49H60V43H69V37H60V31H69V25H60V19L101 19V95.0131C101 98.3196 98.3196 101 95.0131 101H24.9869C21.6804 101 19 98.3196 19 95.0131ZM61.6667 80.4972C61.1734 80.8268 60.5933 81.0028 60 81.0028C59.2043 81.0028 58.4413 80.6867 57.8787 80.1241C57.3161 79.5615 57 78.7984 57 78.0028C57 77.4094 57.1759 76.8294 57.5056 76.3361C57.8352 75.8427 58.3038 75.4582 58.852 75.2311C59.4001 75.0041 60.0033 74.9447 60.5853 75.0604C61.1672 75.1762 61.7018 75.4619 62.1213 75.8815C62.5409 76.301 62.8266 76.8356 62.9424 77.4175C63.0581 77.9995 62.9987 78.6027 62.7716 79.1508C62.5446 79.699 62.1601 80.1675 61.6667 80.4972Z" fill="#1E1919"/>
</svg>
