<svg width="24" height="24" viewBox="0 0 24 24" fill="none" xmlns="http://www.w3.org/2000/svg">
<path fill-rule="evenodd" clip-rule="evenodd" d="M7.04189 16.9581C7.98315 17.8994 9.52881 18.5 12 18.5C14.4712 18.5 16.0169 17.8994 16.9581 16.9581C17.8994 16.0169 18.5 14.4712 18.5 12C18.5 9.52881 17.8994 7.98315 16.9581 7.04189C16.0169 6.10064 14.4712 5.5 12 5.5C9.52881 5.5 7.98315 6.10064 7.04189 7.04189C6.10064 7.98315 5.5 9.52881 5.5 12C5.5 14.4712 6.10064 16.0169 7.04189 16.9581ZM4 12C4 17.3834 6.61662 20 12 20C17.3834 20 20 17.3834 20 12C20 6.61662 17.3834 4 12 4C6.61662 4 4 6.61662 4 12Z" fill="#1E1919"/>
<path d="M12 15.5C9.64477 15.5 8.5 14.3552 8.5 12C8.5 9.64477 9.64477 8.5 12 8.5C14.3552 8.5 15.5 9.64477 15.5 12C15.5 14.3552 14.3552 15.5 12 15.5Z" fill="#1E1919"/>
</svg>
