<svg width="64" height="64" viewBox="0 0 64 64" fill="none" xmlns="http://www.w3.org/2000/svg">
<path d="M51.2138 22.029L41.8708 12.685C40.7447 11.5616 39.219 10.9307 37.6283 10.9307C36.0376 10.9307 34.5119 11.5616 33.3858 12.685L28.7998 17.271L31.7998 20.271L26.1278 25.942L24.2848 24.1C22.7834 22.6021 20.7491 21.7609 18.6283 21.7609C16.5075 21.7609 14.4732 22.6021 12.9718 24.1L8.7998 28.271L20.8498 40.321L10.5858 50.586L13.4138 53.414L23.6778 43.15L35.6288 55.1L39.7998 50.928C41.2977 49.4266 42.1389 47.3923 42.1389 45.2715C42.1389 43.1507 41.2977 41.1164 39.7998 39.615L37.9568 37.772L43.6288 32.1L46.6288 35.1L51.2138 30.515C52.3389 29.3898 52.971 27.8637 52.971 26.2725C52.971 24.6813 52.3389 23.1552 51.2138 22.03V22.029ZM48.3858 27.686L46.6288 29.443L43.6288 26.443L32.2998 37.771L36.9708 42.442C37.7193 43.193 38.1396 44.2102 38.1396 45.2705C38.1396 46.3308 37.7193 47.3479 36.9708 48.099L35.6278 49.442L14.4568 28.271L15.7998 26.928C16.5506 26.179 17.5678 25.7584 18.6283 25.7584C19.6888 25.7584 20.706 26.179 21.4568 26.928L26.1278 31.6L37.4568 20.271L34.4568 17.271L36.2138 15.514C36.3995 15.3282 36.62 15.1808 36.8628 15.0802C37.1055 14.9797 37.3656 14.9279 37.6283 14.9279C37.891 14.9279 38.1512 14.9797 38.3939 15.0802C38.6366 15.1808 38.8571 15.3282 39.0428 15.514L48.3858 24.857C48.7607 25.232 48.9714 25.7407 48.9714 26.271C48.9714 26.8013 48.7607 27.3099 48.3858 27.685V27.686Z" fill="#1A1918"/>
</svg>
