<svg width="64" height="64" viewBox="0 0 64 64" fill="none" xmlns="http://www.w3.org/2000/svg">
<path d="M31.9998 41C31.6042 41 31.2175 41.1173 30.8886 41.3371C30.5597 41.5568 30.3034 41.8692 30.152 42.2346C30.0006 42.6001 29.961 43.0022 30.0382 43.3902C30.1154 43.7781 30.3058 44.1345 30.5855 44.4142C30.8653 44.6939 31.2216 44.8844 31.6096 44.9616C31.9975 45.0387 32.3997 44.9991 32.7651 44.8478C33.1306 44.6964 33.4429 44.44 33.6627 44.1111C33.8825 43.7822 33.9998 43.3956 33.9998 43C34.0213 42.7319 33.9844 42.4623 33.8915 42.2098C33.7987 41.9574 33.652 41.7281 33.4618 41.5379C33.2716 41.3477 33.0424 41.2011 32.7899 41.1082C32.5375 41.0153 32.2679 40.9784 31.9998 41Z" fill="#1E1919"/>
<path d="M29.9998 28V39.509C30.6135 39.1752 31.3011 39.0003 31.9998 39.0003C32.6984 39.0003 33.386 39.1752 33.9998 39.509V28H29.9998Z" fill="#1E1919"/>
<path d="M31.9998 9.008L6.53076 53H57.4688L31.9998 9.008ZM31.9998 16.991L50.5308 49H13.4688L31.9998 16.991Z" fill="#1E1919"/>
</svg>
