<svg width="64" height="64" viewBox="0 0 64 64" fill="none" xmlns="http://www.w3.org/2000/svg">
<path fill-rule="evenodd" clip-rule="evenodd" d="M32.9345 19.6056C39.1396 7.19541 54.0801 10.5 53.7234 10.5H56.163L55.6846 12.8922C55.2936 14.8471 54.0467 18.1257 51.8204 21.0789C49.58 24.051 46.1863 26.8952 41.4715 27.4846C38.9214 27.8033 37.2428 28.2242 36.1758 28.6195C35.8055 28.7567 35.529 28.8834 35.3256 28.9904C35.4598 29.3142 35.5738 29.6555 35.6637 30.0149C38.1855 40.1021 36.0364 49.6026 34.5803 53.2428L30.8664 51.7572C32.0482 48.8029 33.9671 40.5064 31.9389 31.6361C31.6041 31.6838 31.0202 31.8377 30.1178 32.2889C29.4258 32.6349 28.8359 33.1534 28.0673 33.922C27.9528 34.0366 27.8332 34.1579 27.7084 34.2844C27.0433 34.9594 26.2303 35.7842 25.2436 36.5317C22.7471 38.423 19.278 39.7548 13.2003 39.5008C13.1887 39.5014 13.1727 39.5024 13.1521 39.504C13.1051 39.5077 13.042 39.5142 12.9639 39.525C12.8072 39.5466 12.6029 39.5835 12.3616 39.6426C11.8782 39.761 11.2706 39.9624 10.6178 40.2889L8.06993 41.5628L7.73709 38.7337C7.34994 35.4429 8.19743 30.8195 11.3828 27.3891C14.6784 23.84 20.1169 21.9391 28.1156 23.5388C29.0171 23.7191 30.2722 24.1372 31.5096 24.8548C31.9031 22.0946 32.6004 20.2738 32.9345 19.6056ZM29.3705 28.24C28.5927 27.8096 27.8182 27.5586 27.3312 27.4612C20.3299 26.0609 16.4351 27.8266 14.314 30.1109C12.8137 31.7265 12.0272 33.7823 11.7579 35.6782C12.3655 35.5503 12.872 35.5 13.2234 35.5H13.2669L13.3103 35.5019C18.693 35.7359 21.2084 34.5704 22.8282 33.3433C23.565 32.7851 24.1488 32.1946 24.8113 31.5244C24.9497 31.3844 25.0915 31.241 25.2389 31.0936C26.0483 30.2841 27.021 29.3651 28.329 28.7111C28.6857 28.5328 29.0329 28.3756 29.3705 28.24ZM35.6034 24.5915C35.9409 22.7317 36.3981 21.6227 36.5122 21.3944C40.0989 14.221 47.1909 13.9217 51.105 14.2262C50.5792 15.56 49.7626 17.1638 48.6264 18.6711C46.7835 21.1157 44.2605 23.1048 40.9753 23.5154C38.7184 23.7976 36.9617 24.1693 35.6034 24.5915Z" fill="#1E1919"/>
<path d="M29.7234 54C30.7234 52.5 31.5567 50 31.7234 49L35.1834 51.5C34.7334 53 34.4401 53.6667 34.2734 54H29.7234Z" fill="#1E1919"/>
</svg>
