<svg width="64" height="64" viewBox="0 0 64 64" fill="none" xmlns="http://www.w3.org/2000/svg">
<path d="M23.955 36.89H24.42C27.375 36.89 29.115 35.945 29.115 32.855C29.115 29.99 27.615 29 24.675 29H21V40.475H23.955V36.89ZM24.615 34.535H23.955V31.28H24.645C25.665 31.28 26.175 31.625 26.175 32.9C26.175 34.1 25.575 34.535 24.615 34.535Z" fill="#1E1919"/>
<path d="M32 29V40.475H35.255C38.675 40.475 40.25 38.405 40.25 34.865C40.25 30.8 38.675 29 35.27 29H32ZM35.165 38.255H34.94V31.19H35.165C36.305 31.19 37.115 32 37.115 34.835C37.115 37.445 36.32 38.255 35.165 38.255Z" fill="#1E1919"/>
<path d="M45.94 40.475V36.23H50.14V33.95H45.94V31.28H50.26V29H43V40.475H45.94Z" fill="#1E1919"/>
<path fill-rule="evenodd" clip-rule="evenodd" d="M42.586 9.757L48.242 15.415C48.801 15.9707 49.2442 16.6317 49.546 17.3599C49.8478 18.088 50.0021 18.8688 50 19.657V25H46V21H37V12H18V52H46V45H50V56H14V8H38.343C39.1313 7.99765 39.9122 8.15174 40.6406 8.45334C41.3689 8.75493 42.0301 9.19804 42.586 9.757Z" fill="#1E1919"/>
</svg>
