<svg width="24" height="24" viewBox="0 0 24 24" fill="none" xmlns="http://www.w3.org/2000/svg">
<path fill-rule="evenodd" clip-rule="evenodd" d="M17.9885 7.1383C17.9885 7.73484 17.7518 8.30702 17.3305 8.7293L10.2175 15.8383L5.96747 16.5298L6.65897 12.2798L13.77 5.1683C14.1923 4.74695 14.7644 4.51031 15.361 4.51031C15.9575 4.51031 16.5297 4.74695 16.952 5.1683L17.3305 5.5473C17.7518 5.96958 17.9885 6.54176 17.9885 7.1383ZM16.27 6.6078L15.8915 6.2293C15.8218 6.15953 15.7386 6.10418 15.6475 6.06641C15.5564 6.02865 15.4588 6.00921 15.3602 6.00921C15.2616 6.00921 15.164 6.02865 15.0729 6.06641C14.9819 6.10418 14.8991 6.15953 14.8295 6.2293L14.033 7.0258L15.483 8.4558L16.27 7.6688C16.3397 7.59915 16.395 7.51645 16.4327 7.42542C16.4704 7.3344 16.4898 7.23683 16.4898 7.1383C16.4898 7.03977 16.4704 6.9422 16.4327 6.85118C16.395 6.76015 16.3397 6.67745 16.27 6.6078ZM8.06197 12.9993L7.78247 14.7168L9.49997 14.4373L14.423 9.5183L12.973 8.0883L8.06197 12.9993Z" fill="#1E1919"/>
<path d="M5 17.9993H19V19.4993H5V17.9993Z" fill="#1E1919"/>
</svg>
