<svg width="64" height="64" viewBox="0 0 64 64" fill="none" xmlns="http://www.w3.org/2000/svg">
<path fill-rule="evenodd" clip-rule="evenodd" d="M32 14C23.5175 14 19.262 17.741 19.0117 25.4305C12.3866 27.0325 8 29.8241 8 33C8 35.4577 10.6269 37.6852 14.8852 39.3094L12.1841 45.1619L15.8159 46.8381L18.7399 40.5028C22.017 41.3189 25.8595 41.8411 30 41.9692V50H34V41.9692C38.1405 41.8411 41.983 41.3189 45.2601 40.5028L48.1841 46.8381L51.8159 45.1619L49.1148 39.3094C53.3731 37.6852 56 35.4577 56 33C56 29.8241 51.6134 27.0325 44.9883 25.4305C44.738 17.741 40.4825 14 32 14ZM24.9525 19.9333C23.8826 20.9343 23 22.7284 23 26.1635V27.4072C28.6936 30.1088 35.3064 30.1088 41 27.4072V26.1635C41 22.7284 40.1174 20.9343 39.0475 19.9333C37.9252 18.8832 35.8482 18 32 18C28.1518 18 26.0748 18.8832 24.9525 19.9333Z" fill="#1E1919"/>
</svg>
