<svg width="24" height="24" viewBox="0 0 24 24" fill="none" xmlns="http://www.w3.org/2000/svg">
<path d="M11.893 6.00001C11.7664 5.53952 11.4831 5.13765 11.0918 4.8638C10.7006 4.58994 10.226 4.46127 9.75 4.50001C9.274 4.46127 8.79942 4.58994 8.40817 4.8638C8.01692 5.13765 7.73356 5.53952 7.607 6.00001H5V7.50001H7.607C7.73356 7.96051 8.01692 8.36238 8.40817 8.63623C8.79942 8.91009 9.274 9.03875 9.75 9.00001C10.226 9.03875 10.7006 8.91009 11.0918 8.63623C11.4831 8.36238 11.7664 7.96051 11.893 7.50001H19V6.00001H11.893ZM9.75 7.50001C9.1895 7.50001 9 7.31101 9 6.75001C9 6.18901 9.1895 6.00001 9.75 6.00001C10.3105 6.00001 10.5 6.18901 10.5 6.75001C10.5 7.31101 10.3105 7.50001 9.75 7.50001Z" fill="#1A1918"/>
<path d="M14.25 9.50001C13.774 9.46127 13.2994 9.58994 12.9082 9.86379C12.5169 10.1377 12.2336 10.5395 12.107 11H5V12.5H12.107C12.2336 12.9605 12.5169 13.3624 12.9082 13.6362C13.2994 13.9101 13.774 14.0388 14.25 14C14.726 14.0388 15.2006 13.9101 15.5918 13.6362C15.9831 13.3624 16.2664 12.9605 16.393 12.5H19V11H16.393C16.2664 10.5395 15.9831 10.1377 15.5918 9.86379C15.2006 9.58994 14.726 9.46127 14.25 9.50001ZM14.25 12.5C13.6895 12.5 13.5 12.311 13.5 11.75C13.5 11.189 13.6895 11 14.25 11C14.8105 11 15 11.189 15 11.75C15 12.311 14.8105 12.5 14.25 12.5Z" fill="#1A1918"/>
<path d="M9.75 14.5C9.274 14.4613 8.79942 14.5899 8.40817 14.8638C8.01692 15.1377 7.73356 15.5395 7.607 16H5V17.5H7.607C7.73356 17.9605 8.01692 18.3624 8.40817 18.6362C8.79942 18.9101 9.274 19.0388 9.75 19C10.226 19.0388 10.7006 18.9101 11.0918 18.6362C11.4831 18.3624 11.7664 17.9605 11.893 17.5H19V16H11.893C11.7664 15.5395 11.4831 15.1377 11.0918 14.8638C10.7006 14.5899 10.226 14.4613 9.75 14.5ZM9.75 17.5C9.1895 17.5 9 17.311 9 16.75C9 16.189 9.1895 16 9.75 16C10.3105 16 10.5 16.189 10.5 16.75C10.5 17.311 10.3105 17.5 9.75 17.5Z" fill="#1A1918"/>
</svg>
