<svg width="64" height="64" viewBox="0 0 64 64" fill="none" xmlns="http://www.w3.org/2000/svg">
<path d="M45.7999 13.217L44.7799 12.197C42.7439 10.1659 39.9854 9.02527 37.1094 9.02527C34.2335 9.02527 31.475 10.1659 29.4389 12.197L22.1739 19.462C20.1427 21.4978 19.0019 24.2562 19.0019 27.132C19.0019 30.0078 20.1427 32.7662 22.1739 34.802L23.1939 35.822C24.839 37.4618 26.9663 38.5311 29.2637 38.8731C31.5611 39.2151 33.9077 38.8116 35.9589 37.722C35.9248 37.0242 35.6334 36.3637 35.1409 35.868L34.1239 34.85C33.9578 34.6882 33.7724 34.5475 33.5719 34.431C32.3135 34.9728 30.9216 35.125 29.5758 34.868C28.23 34.6109 26.9921 33.9565 26.0219 32.989L25.0019 31.969C23.7198 30.6837 22.9998 28.9424 22.9998 27.127C22.9998 25.3116 23.7198 23.5703 25.0019 22.285L32.2669 15.021C33.5524 13.7388 35.2939 13.0188 37.1094 13.0188C38.925 13.0188 40.6665 13.7388 41.9519 15.021L42.9709 16.04C44.2534 17.3253 44.9736 19.0668 44.9736 20.8825C44.9736 22.6982 44.2534 24.4397 42.9709 25.725L42.4629 26.233C42.5099 26.279 42.5629 26.318 42.6079 26.365L43.6279 27.385C44.1836 27.9487 44.6933 28.5559 45.1519 29.201L45.7989 28.554C47.8287 26.5181 48.9686 23.7606 48.9688 20.8857C48.969 18.0109 47.8294 15.2532 45.7999 13.217Z" fill="#1A1918"/>
<path d="M41.9129 31.548C41.7269 31.291 41.5469 31.059 41.3699 30.848C41.1929 30.637 41.0049 30.422 40.8029 30.22L39.8549 29.272C39.7939 29.218 39.7349 29.163 39.6759 29.106L39.6379 29.069C37.9891 27.4818 35.8811 26.4559 33.6146 26.1376C31.3482 25.8194 29.0391 26.2252 27.0169 27.297C27.0512 27.9941 27.3422 28.6538 27.8339 29.149L28.8539 30.169C29.02 30.3306 29.2054 30.471 29.4059 30.587C30.664 30.0442 32.0561 29.8915 33.4019 30.1485C34.7478 30.4056 35.9855 31.0607 36.9549 32.029L37.9739 33.048C39.2564 34.3333 39.9766 36.0748 39.9766 37.8905C39.9766 39.7062 39.2564 41.4477 37.9739 42.733L30.7089 49.998C29.4238 51.2804 27.6825 52.0006 25.8669 52.0006C24.0514 52.0006 22.3101 51.2804 21.0249 49.998L20.0049 48.978C18.7228 47.6927 18.0028 45.9514 18.0028 44.136C18.0028 42.3206 18.7228 40.5793 20.0049 39.294L20.5129 38.786C20.4659 38.74 20.4129 38.701 20.3679 38.654L19.3479 37.634C18.7923 37.0703 18.2826 36.4631 17.8239 35.818L17.1769 36.465C15.1457 38.5008 14.0049 41.2592 14.0049 44.135C14.0049 47.0108 15.1457 49.7692 17.1769 51.805L18.1969 52.825C20.2327 54.8563 22.9911 55.9971 25.8669 55.9971C28.7428 55.9971 31.5012 54.8563 33.5369 52.825L40.7999 45.558C42.5518 43.8006 43.6493 41.4966 43.91 39.0289C44.1707 36.5612 43.5789 34.0787 42.2329 31.994L41.9129 31.548Z" fill="#1A1918"/>
</svg>
