<svg width="24" height="24" viewBox="0 0 24 24" fill="none" xmlns="http://www.w3.org/2000/svg">
<path fill-rule="evenodd" clip-rule="evenodd" d="M12.7143 14.4117L9.33293 11.0303L10.3936 9.96966L13.775 13.351L12.7143 14.4117Z" fill="#1E1919"/>
<path fill-rule="evenodd" clip-rule="evenodd" d="M13.775 11.0303L10.3936 14.4117L9.33293 13.351L12.7143 9.96965L13.775 11.0303Z" fill="#1E1919"/>
<path fill-rule="evenodd" clip-rule="evenodd" d="M12.2188 16.9268H9.51366V15.4268H12.2188V16.9268Z" fill="#1E1919"/>
<path fill-rule="evenodd" clip-rule="evenodd" d="M15.9499 16.9268H13.2448V15.4268H15.9499V16.9268Z" fill="#1E1919"/>
<path fill-rule="evenodd" clip-rule="evenodd" d="M19.6747 16.9268H16.9696V15.4268H19.6747V16.9268Z" fill="#1E1919"/>
<path d="M13.8637 3.75174C16.1435 3.75174 17.9916 5.59985 17.9916 7.8796H13.8637V3.75174Z" fill="#1E1919"/>
<path fill-rule="evenodd" clip-rule="evenodd" d="M5.17969 3.00174V21H18.6741L18.6854 19.4959H17.1853L17.1853 19.5H6.67969V4.50174H14.4397C14.5386 4.50174 14.6335 4.54081 14.7037 4.61046L15.8914 5.7881L16.8918 6.73919C17.1151 6.95157 17.2416 7.2463 17.2416 7.55453V12.0009L17.2354 12.828H18.7354L18.7416 12.0037V7.55453C18.7416 6.83533 18.4465 6.14763 17.9253 5.65208L16.9363 4.71187L15.7599 3.54533C15.4087 3.19712 14.9342 3.00174 14.4397 3.00174H5.17969Z" fill="#1E1919"/>
</svg>
