<svg width="64" height="64" viewBox="0 0 64 64" fill="none" xmlns="http://www.w3.org/2000/svg">
<path d="M40.9374 18.8015C42.3648 17.374 43.7526 17.374 45.18 18.8015C46.6075 20.2289 46.6075 21.6167 45.18 23.0441C43.7526 24.4716 42.3648 24.4716 40.9374 23.0441C39.5099 21.6167 39.5099 20.2289 40.9374 18.8015Z" fill="#1E1919"/>
<path fill-rule="evenodd" clip-rule="evenodd" d="M55.6382 9.98766L55.4033 8.57852L53.9942 8.34367C48.4191 7.41448 41.5637 8.31375 35.7396 11.7246C34.2222 12.6133 32.7789 13.6706 31.4502 14.905L25.7312 14.6407C24.6074 14.5887 23.5136 15.0124 22.7181 15.808L13.3604 25.1657L16.1888 27.9941L24.6551 26.1127C24.2811 27.4027 23.9862 28.7682 23.78 30.2114L23.6386 31.2014L26.7952 34.358L21.8456 39.3076L24.6741 42.136L29.6236 37.1864L32.7805 40.3432L33.7704 40.2018C35.2136 39.9957 36.5791 39.7007 37.8691 39.3267L35.9878 47.7928L38.8162 50.6213L48.1739 41.2635C48.9695 40.468 49.3932 39.3742 49.3412 38.2504L49.0768 32.5316C50.3113 31.2029 51.3685 29.7596 52.2572 28.2422C55.6681 22.4181 56.5674 15.5628 55.6382 9.98766ZM38.1091 28.701L32.4521 34.358L34.1792 36.0851C41.4081 34.7869 46.0671 30.8966 48.8056 26.2207C51.415 21.7653 52.304 16.5459 51.8819 12.1C47.4359 11.6779 42.2166 12.5669 37.7611 15.1763C33.0852 17.9147 29.1949 22.5738 27.8967 29.8026L29.6236 31.5296L35.2807 25.8725L38.1091 28.701Z" fill="#1E1919"/>
<path d="M6.6709 48.6703L16.6708 38.6704L19.4992 41.4988L9.49933 51.4987L6.6709 48.6703Z" fill="#1E1919"/>
<path d="M16.6699 50.6712L22.6697 44.6714L25.4981 47.4998L19.4983 53.4996L16.6699 50.6712Z" fill="#1E1919"/>
</svg>
