<svg width="120" height="120" viewBox="0 0 120 120" fill="none" xmlns="http://www.w3.org/2000/svg">
<path d="M101 35C100.997 32.6139 100.048 30.3262 98.361 28.639C96.6738 26.9517 94.3861 26.0026 92 26H78V22C77.9974 19.6139 77.0483 17.3262 75.361 15.639C73.6738 13.9517 71.3861 13.0026 69 13H51C48.6139 13.0026 46.3262 13.9517 44.639 15.639C42.9517 17.3262 42.0026 19.6139 42 22V26H28C25.6139 26.0026 23.3262 26.9517 21.639 28.639C19.9517 30.3262 19.0026 32.6139 19 35V43H27.352L34.158 97.344C34.4887 100.007 35.7807 102.458 37.7911 104.237C39.8015 106.015 42.3921 106.997 45.076 107H74.924C77.6069 106.997 80.1966 106.016 82.2067 104.239C84.2169 102.462 85.5092 100.012 85.841 97.35L92.648 43H101V35ZM48 22C48 21.2044 48.3161 20.4413 48.8787 19.8787C49.4413 19.3161 50.2044 19 51 19H69C69.7957 19 70.5587 19.3161 71.1213 19.8787C71.6839 20.4413 72 21.2044 72 22V26H48V22ZM79.887 96.61C79.7369 97.8209 79.1497 98.9352 78.2357 99.7436C77.3218 100.552 76.1441 100.999 74.924 101H45.076C43.8545 100.998 42.6757 100.55 41.7617 99.7394C40.8477 98.929 40.2613 97.8125 40.113 96.6L33.4 43H86.6L79.887 96.61ZM95 37H25V35C25 34.2044 25.3161 33.4413 25.8787 32.8787C26.4413 32.3161 27.2044 32 28 32H92C92.7956 32 93.5587 32.3161 94.1213 32.8787C94.6839 33.4413 95 34.2044 95 35V37Z" fill="#1E1919"/>
<path d="M57 65.443V89H63V65.443C65.5858 67.911 68.4992 70.011 71.658 71.684L74.346 66.32C74.257 66.274 65.568 61.745 63 55H57C54.432 61.745 45.743 66.274 45.658 66.317L48.342 71.683C51.5008 70.0103 54.4141 67.9106 57 65.443Z" fill="#1E1919"/>
</svg>
