<svg width="120" height="120" viewBox="0 0 120 120" fill="none" xmlns="http://www.w3.org/2000/svg">
<path d="M98.436 52.443C97.5966 51.3672 96.5222 50.4977 95.2951 49.9009C94.0679 49.3042 92.7205 48.996 91.356 49H72.162L75.7 38.376C76.5517 35.8208 76.7842 33.0998 76.3782 30.4372C75.9721 27.7746 74.9392 25.2466 73.3646 23.0614C71.79 20.8763 69.7187 19.0965 67.3214 17.8688C64.9241 16.6411 62.2694 16.0006 59.576 16H54.838L47.714 37.37C46.9178 39.7488 45.3353 41.7856 43.227 43.145L36.836 47.253C35.0623 48.3946 32.9973 49.0011 30.888 49H19V83.8L44.159 97.274C47.5007 99.0605 51.2308 99.9967 55.02 100H83.29C85.3061 100.004 87.2648 99.3288 88.8506 98.0838C90.4364 96.8389 91.5571 95.0964 92.032 93.137L100.099 60.137C100.427 58.8126 100.447 57.4308 100.159 56.0973C99.8709 54.7637 99.2815 53.5138 98.436 52.443ZM94.271 58.713L86.204 91.713C86.0457 92.3661 85.6721 92.9468 85.1435 93.3617C84.6149 93.7766 83.962 94.0014 83.29 94H55.02C52.2192 93.9976 49.462 93.3056 46.992 91.985L25 80.2V55H30.888C34.1481 55.002 37.3397 54.0646 40.081 52.3L46.472 48.192C49.7304 46.0916 52.1764 42.9442 53.407 39.268L59.162 22H59.576C61.319 22.0001 63.037 22.4143 64.5885 23.2086C66.14 24.0029 67.4805 25.1545 68.4996 26.5685C69.5187 27.9826 70.1871 29.6185 70.4499 31.3416C70.7127 33.0646 70.5623 34.8255 70.011 36.479L63.838 55H91.356C91.8106 54.9999 92.2593 55.1031 92.6682 55.3018C93.077 55.5006 93.4354 55.7896 93.7162 56.1472C93.9969 56.5047 94.1928 56.9214 94.2889 57.3657C94.385 57.81 94.3789 58.2704 94.271 58.712V58.713Z" fill="#1A1918"/>
</svg>
