<svg width="330" height="92" viewBox="0 0 330 92" fill="none" xmlns="http://www.w3.org/2000/svg">
<path d="M8.89569 12.328H6.83169V17H5.34369V4.76H9.02369C11.3917 4.76 13.2317 5.88 13.2317 8.52C13.2317 11.112 11.4077 12.328 8.89569 12.328ZM6.83169 11.128H8.89569C10.6717 11.128 11.6957 10.264 11.6957 8.52C11.6957 6.696 10.6717 5.96 8.94369 5.96H6.83169V11.128ZM15.3704 6.648V5.096H16.8904V6.648H15.3704ZM15.4024 17V8.568H16.8584V17H15.4024ZM26.2392 11.112H24.8312C24.7352 10.248 24.1272 9.464 22.9112 9.464C21.3912 9.464 20.5912 10.792 20.5912 12.76C20.5912 14.712 21.1832 16.072 22.8792 16.072C24.4792 16.072 24.8952 14.888 24.9432 14.248H26.2872C26.0792 16.2 24.6872 17.192 22.8632 17.192C20.4312 17.192 19.1192 15.496 19.1192 12.824C19.1192 10.248 20.5272 8.36 22.8952 8.36C24.5752 8.36 26.0952 9.128 26.2392 11.112ZM28.9133 6.12H30.2253V8.568H32.3053V9.672H30.2253V14.648C30.2253 15.544 30.5933 15.896 31.5053 15.896C31.9373 15.896 32.4333 15.816 32.4333 15.816V17.032C32.4333 17.032 31.8413 17.128 31.1053 17.128C29.4573 17.128 28.8013 16.328 28.8013 14.888V9.672H27.2653V8.616H27.5213C28.6573 8.616 28.9133 8.344 28.9133 6.728V6.12ZM37.4261 17.208C34.9461 17.208 33.6661 15.416 33.6661 12.776C33.6661 10.168 35.1061 8.36 37.4581 8.36C39.9701 8.36 41.2181 10.168 41.2181 12.776C41.2181 15.416 39.7941 17.208 37.4261 17.208ZM37.4421 9.464C35.9061 9.464 35.1541 10.728 35.1541 12.776C35.1541 14.84 35.8421 16.088 37.4741 16.088C39.0421 16.088 39.7301 14.84 39.7301 12.776C39.7301 10.728 39.0581 9.464 37.4421 9.464ZM49.0124 13.176V12.328C49.0124 10.648 48.0684 9.496 46.6124 9.496C45.0924 9.496 44.3724 10.76 44.3724 12.664C44.3724 14.52 44.9004 15.8 46.6764 15.8C48.0364 15.8 49.0124 14.616 49.0124 13.176ZM46.5484 20.184C44.9484 20.184 43.3004 19.592 43.1084 17.848H44.5004C44.6604 18.568 45.2044 19.032 46.5804 19.032C48.1804 19.032 48.9804 18.44 48.9804 16.584V15.336H48.9644C48.5324 16.168 47.5404 16.888 46.2764 16.888C44.5164 16.888 42.9004 15.784 42.9004 12.664C42.9004 9.88 44.3724 8.36 46.4524 8.36C47.8124 8.36 48.6284 9.112 48.9804 9.896H49.0124V8.568H50.3884V16.792C50.3884 19.16 48.8364 20.184 46.5484 20.184ZM53.4024 17V8.568H54.7624V10.152H54.7944C55.1784 9.272 56.2344 8.408 57.4664 8.408H57.6104V9.912H57.3384C55.8344 9.912 54.8424 10.776 54.8424 12.408V17H53.4024ZM61.6722 15.976C62.7442 15.976 64.0722 15.256 64.0722 13.176V12.984C62.2482 13.064 61.2082 13.208 60.6642 13.608C60.3442 13.848 60.2002 14.2 60.2002 14.648C60.2002 15.512 60.7602 15.976 61.6722 15.976ZM60.5522 10.872H59.1762C59.2082 9.384 60.3442 8.36 62.3602 8.36C64.4562 8.36 65.4802 9.24 65.4802 11.496V14.936C65.4802 15.608 65.6242 15.88 66.2482 15.896V17.064H66.0722C64.7282 17.064 64.2802 16.584 64.1362 15.576H64.1042C63.6562 16.568 62.6482 17.144 61.4002 17.144C59.7202 17.144 58.7282 16.232 58.7282 14.728C58.7282 13.8 59.1282 13.032 59.9922 12.6C60.8722 12.136 62.1842 11.976 64.0722 11.912V11.544C64.0722 10.024 63.4962 9.432 62.3122 9.432C61.0642 9.432 60.6002 10.152 60.5522 10.872ZM68.3399 17V8.568H69.6999V9.992H69.7319C70.1159 9.128 71.0919 8.36 72.4359 8.36C73.7159 8.36 74.6759 8.936 74.9799 10.104H75.0119C75.3319 9.224 76.3719 8.36 77.7639 8.36C79.3479 8.36 80.4359 9.128 80.4359 11.128V17H78.9959V11.784C78.9959 11.176 78.9959 10.52 78.6919 10.104C78.4039 9.704 77.9399 9.56 77.3799 9.56C75.8119 9.56 75.1079 10.568 75.1079 11.944V17H73.6679V11.784C73.6679 11.176 73.6679 10.536 73.3639 10.12C73.0759 9.72 72.6119 9.56 72.0519 9.56C70.4839 9.56 69.7799 10.568 69.7799 11.912V17H68.3399ZM88.9072 10.68H87.5312C87.4512 9.928 86.8432 9.448 85.8512 9.448C84.8592 9.448 84.2032 10.024 84.2032 10.808C84.2032 11.496 84.6192 11.816 85.4672 11.96L86.7632 12.152C88.5232 12.424 89.1632 13.144 89.1632 14.6C89.1632 16.296 87.7872 17.208 85.8672 17.208C84.1232 17.208 82.6832 16.424 82.5712 14.616H83.9792C84.0432 15.272 84.4112 16.104 85.8992 16.104C87.0512 16.104 87.7712 15.56 87.7712 14.68C87.7712 14.008 87.5952 13.64 86.4432 13.448L85.1472 13.256C83.6432 13.016 82.8432 12.392 82.8432 10.92C82.8432 9.432 83.9792 8.36 85.8992 8.36C87.7232 8.36 88.7632 9.208 88.9072 10.68ZM97.1694 13.096C97.1694 14.76 97.9854 16.072 99.5854 16.072C101.089 16.072 101.825 14.872 101.825 12.664C101.825 10.872 101.297 9.512 99.5694 9.512C98.0814 9.512 97.1694 10.776 97.1694 12.2V13.096ZM95.7774 20.008V8.568H97.1694V9.976H97.2014C97.6974 9.08 98.6094 8.36 99.8894 8.36C101.681 8.36 103.281 9.464 103.281 12.664C103.281 15.736 101.697 17.208 99.7934 17.208C98.5614 17.208 97.5694 16.52 97.2494 15.768H97.2174V20.008H95.7774ZM105.559 17V8.568H106.919V10.152H106.951C107.335 9.272 108.391 8.408 109.623 8.408H109.767V9.912H109.495C107.991 9.912 106.999 10.776 106.999 12.408V17H105.559ZM114.66 17.208C112.18 17.208 110.9 15.416 110.9 12.776C110.9 10.168 112.34 8.36 114.692 8.36C117.204 8.36 118.452 10.168 118.452 12.776C118.452 15.416 117.028 17.208 114.66 17.208ZM114.676 9.464C113.14 9.464 112.388 10.728 112.388 12.776C112.388 14.84 113.076 16.088 114.708 16.088C116.276 16.088 116.964 14.84 116.964 12.776C116.964 10.728 116.292 9.464 114.676 9.464ZM122.555 17L119.595 8.568H121.067L122.891 13.992C123.131 14.68 123.307 15.32 123.307 15.32H123.339C123.339 15.32 123.515 14.68 123.755 13.992L125.627 8.568H127.003L124.075 17H122.555ZM128.855 6.648V5.096H130.375V6.648H128.855ZM128.887 17V8.568H130.343V17H128.887ZM138.716 13.352V12.456C138.716 10.664 137.772 9.512 136.428 9.512C134.812 9.512 134.076 10.792 134.076 12.776C134.076 14.68 134.636 16.072 136.316 16.072C137.804 16.072 138.716 14.888 138.716 13.352ZM140.124 4.392V17H138.748V15.608H138.7C138.252 16.44 137.34 17.208 136.044 17.208C134.252 17.208 132.604 16.088 132.604 12.84C132.604 9.944 134.108 8.36 136.236 8.36C137.5 8.36 138.316 9.064 138.652 9.848H138.684V4.392H140.124ZM148.193 12.04V11.944C148.161 10.536 147.601 9.448 146.129 9.448C144.785 9.448 144.049 10.504 143.873 12.04H148.193ZM149.553 14.792C149.249 16.248 148.001 17.208 146.193 17.208C143.617 17.208 142.385 15.336 142.385 12.824C142.385 10.328 143.729 8.36 146.145 8.36C148.673 8.36 149.665 10.312 149.665 12.44V13.176H143.857C143.953 14.92 144.657 16.104 146.241 16.104C147.649 16.104 148.017 15.288 148.161 14.792H149.553ZM162.661 11.112H161.253C161.157 10.248 160.549 9.464 159.333 9.464C157.813 9.464 157.013 10.792 157.013 12.76C157.013 14.712 157.605 16.072 159.301 16.072C160.901 16.072 161.317 14.888 161.365 14.248H162.709C162.501 16.2 161.109 17.192 159.285 17.192C156.853 17.192 155.541 15.496 155.541 12.824C155.541 10.248 156.949 8.36 159.317 8.36C160.997 8.36 162.517 9.128 162.661 11.112ZM167.957 17.208C165.477 17.208 164.197 15.416 164.197 12.776C164.197 10.168 165.637 8.36 167.989 8.36C170.501 8.36 171.749 10.168 171.749 12.776C171.749 15.416 170.325 17.208 167.957 17.208ZM167.973 9.464C166.437 9.464 165.685 10.728 165.685 12.776C165.685 14.84 166.373 16.088 168.005 16.088C169.573 16.088 170.261 14.84 170.261 12.776C170.261 10.728 169.589 9.464 167.973 9.464ZM179.387 17V11.8C179.387 11.192 179.387 10.52 179.083 10.12C178.795 9.72 178.315 9.56 177.755 9.56C176.187 9.56 175.467 10.568 175.467 11.944V17H174.027V8.568H175.387V9.992H175.419C175.819 9.128 176.795 8.36 178.139 8.36C179.755 8.36 180.827 9.128 180.827 11.128V17H179.387ZM184.226 6.12H185.538V8.568H187.618V9.672H185.538V14.648C185.538 15.544 185.906 15.896 186.818 15.896C187.25 15.896 187.746 15.816 187.746 15.816V17.032C187.746 17.032 187.154 17.128 186.418 17.128C184.77 17.128 184.114 16.328 184.114 14.888V9.672H182.578V8.616H182.834C183.97 8.616 184.226 8.344 184.226 6.728V6.12ZM194.787 12.04V11.944C194.755 10.536 194.195 9.448 192.723 9.448C191.379 9.448 190.643 10.504 190.467 12.04H194.787ZM196.147 14.792C195.843 16.248 194.595 17.208 192.787 17.208C190.211 17.208 188.979 15.336 188.979 12.824C188.979 10.328 190.323 8.36 192.739 8.36C195.267 8.36 196.259 10.312 196.259 12.44V13.176H190.451C190.547 14.92 191.251 16.104 192.835 16.104C194.243 16.104 194.611 15.288 194.755 14.792H196.147ZM197.249 17L200.129 12.648L197.457 8.568H199.153L200.993 11.512H201.025L202.913 8.568H204.481L201.825 12.568L204.753 17H203.041L200.945 13.704H200.897L198.817 17H197.249ZM207.023 6.12H208.335V8.568H210.415V9.672H208.335V14.648C208.335 15.544 208.703 15.896 209.615 15.896C210.047 15.896 210.543 15.816 210.543 15.816V17.032C210.543 17.032 209.951 17.128 209.215 17.128C207.567 17.128 206.911 16.328 206.911 14.888V9.672H205.375V8.616H205.631C206.767 8.616 207.023 8.344 207.023 6.728V6.12ZM213.841 8.568V13.752C213.841 14.36 213.841 15.064 214.145 15.464C214.433 15.848 214.881 16.024 215.441 16.024C217.009 16.024 217.745 14.984 217.745 13.128V8.568H219.185V17H217.809V15.56H217.777C217.393 16.424 216.465 17.208 215.121 17.208C213.505 17.208 212.417 16.424 212.417 14.44V8.568H213.841ZM224.282 15.976C225.354 15.976 226.682 15.256 226.682 13.176V12.984C224.858 13.064 223.818 13.208 223.274 13.608C222.954 13.848 222.81 14.2 222.81 14.648C222.81 15.512 223.37 15.976 224.282 15.976ZM223.162 10.872H221.786C221.818 9.384 222.954 8.36 224.97 8.36C227.066 8.36 228.09 9.24 228.09 11.496V14.936C228.09 15.608 228.234 15.88 228.858 15.896V17.064H228.682C227.338 17.064 226.89 16.584 226.746 15.576H226.714C226.266 16.568 225.258 17.144 224.01 17.144C222.33 17.144 221.338 16.232 221.338 14.728C221.338 13.8 221.738 13.032 222.602 12.6C223.482 12.136 224.794 11.976 226.682 11.912V11.544C226.682 10.024 226.106 9.432 224.922 9.432C223.674 9.432 223.21 10.152 223.162 10.872ZM230.949 17V4.392H232.389V17H230.949ZM239.714 6.648V5.096H241.234V6.648H239.714ZM239.746 17V8.568H241.202V17H239.746ZM249.575 17V11.8C249.575 11.192 249.575 10.52 249.271 10.12C248.983 9.72 248.503 9.56 247.943 9.56C246.375 9.56 245.655 10.568 245.655 11.944V17H244.215V8.568H245.575V9.992H245.607C246.007 9.128 246.983 8.36 248.327 8.36C249.943 8.36 251.015 9.128 251.015 11.128V17H249.575ZM255.725 9.672V17H254.285V9.672H252.749V8.568H254.285V6.68C254.285 4.952 255.277 4.344 256.845 4.344C257.165 4.344 257.485 4.376 257.741 4.424V5.608C257.581 5.576 257.325 5.544 256.957 5.544C256.125 5.544 255.725 5.848 255.725 6.856V8.568H257.741V9.672H255.725ZM262.535 17.208C260.055 17.208 258.775 15.416 258.775 12.776C258.775 10.168 260.215 8.36 262.567 8.36C265.079 8.36 266.327 10.168 266.327 12.776C266.327 15.416 264.903 17.208 262.535 17.208ZM262.551 9.464C261.015 9.464 260.263 10.728 260.263 12.776C260.263 14.84 260.951 16.088 262.583 16.088C264.151 16.088 264.839 14.84 264.839 12.776C264.839 10.728 264.167 9.464 262.551 9.464ZM268.606 17V8.568H269.966V10.152H269.998C270.382 9.272 271.438 8.408 272.67 8.408H272.814V9.912H272.542C271.038 9.912 270.046 10.776 270.046 12.408V17H268.606ZM274.699 17V8.568H276.059V9.992H276.091C276.475 9.128 277.451 8.36 278.795 8.36C280.075 8.36 281.035 8.936 281.339 10.104H281.371C281.691 9.224 282.731 8.36 284.123 8.36C285.707 8.36 286.795 9.128 286.795 11.128V17H285.355V11.784C285.355 11.176 285.355 10.52 285.051 10.104C284.763 9.704 284.299 9.56 283.739 9.56C282.171 9.56 281.467 10.568 281.467 11.944V17H280.027V11.784C280.027 11.176 280.027 10.536 279.723 10.12C279.435 9.72 278.971 9.56 278.411 9.56C276.843 9.56 276.139 10.568 276.139 11.912V17H274.699ZM291.907 15.976C292.979 15.976 294.307 15.256 294.307 13.176V12.984C292.483 13.064 291.443 13.208 290.899 13.608C290.579 13.848 290.435 14.2 290.435 14.648C290.435 15.512 290.995 15.976 291.907 15.976ZM290.787 10.872H289.411C289.443 9.384 290.579 8.36 292.595 8.36C294.691 8.36 295.715 9.24 295.715 11.496V14.936C295.715 15.608 295.859 15.88 296.483 15.896V17.064H296.307C294.963 17.064 294.515 16.584 294.371 15.576H294.339C293.891 16.568 292.883 17.144 291.635 17.144C289.955 17.144 288.963 16.232 288.963 14.728C288.963 13.8 289.363 13.032 290.227 12.6C291.107 12.136 292.419 11.976 294.307 11.912V11.544C294.307 10.024 293.731 9.432 292.547 9.432C291.299 9.432 290.835 10.152 290.787 10.872ZM299.038 6.12H300.35V8.568H302.43V9.672H300.35V14.648C300.35 15.544 300.718 15.896 301.63 15.896C302.062 15.896 302.558 15.816 302.558 15.816V17.032C302.558 17.032 301.966 17.128 301.23 17.128C299.582 17.128 298.926 16.328 298.926 14.888V9.672H297.39V8.616H297.646C298.782 8.616 299.038 8.344 299.038 6.728V6.12ZM304.511 6.648V5.096H306.031V6.648H304.511ZM304.543 17V8.568H305.999V17H304.543ZM312.02 17.208C309.54 17.208 308.26 15.416 308.26 12.776C308.26 10.168 309.7 8.36 312.052 8.36C314.564 8.36 315.812 10.168 315.812 12.776C315.812 15.416 314.388 17.208 312.02 17.208ZM312.036 9.464C310.5 9.464 309.748 10.728 309.748 12.776C309.748 14.84 310.436 16.088 312.068 16.088C313.636 16.088 314.324 14.84 314.324 12.776C314.324 10.728 313.652 9.464 312.036 9.464ZM323.45 17V11.8C323.45 11.192 323.45 10.52 323.146 10.12C322.858 9.72 322.378 9.56 321.818 9.56C320.25 9.56 319.53 10.568 319.53 11.944V17H318.09V8.568H319.45V9.992H319.482C319.882 9.128 320.858 8.36 322.202 8.36C323.818 8.36 324.89 9.128 324.89 11.128V17H323.45ZM5.75813 39.976C6.83013 39.976 8.15813 39.256 8.15813 37.176V36.984C6.33413 37.064 5.29413 37.208 4.75013 37.608C4.43012 37.848 4.28613 38.2 4.28613 38.648C4.28613 39.512 4.84613 39.976 5.75813 39.976ZM4.63813 34.872H3.26213C3.29413 33.384 4.43012 32.36 6.44613 32.36C8.54213 32.36 9.56613 33.24 9.56613 35.496V38.936C9.56613 39.608 9.71013 39.88 10.3341 39.896V41.064H10.1581C8.81413 41.064 8.36613 40.584 8.22213 39.576H8.19013C7.74213 40.568 6.73413 41.144 5.48613 41.144C3.80613 41.144 2.81413 40.232 2.81413 38.728C2.81413 37.8 3.21413 37.032 4.07812 36.6C4.95813 36.136 6.27013 35.976 8.15813 35.912V35.544C8.15813 34.024 7.58213 33.432 6.39813 33.432C5.15013 33.432 4.68613 34.152 4.63813 34.872ZM17.7859 41V35.8C17.7859 35.192 17.7859 34.52 17.4819 34.12C17.1939 33.72 16.7139 33.56 16.1539 33.56C14.5859 33.56 13.8659 34.568 13.8659 35.944V41H12.4259V32.568H13.7859V33.992H13.8179C14.2179 33.128 15.1939 32.36 16.5379 32.36C18.1539 32.36 19.2259 33.128 19.2259 35.128V41H17.7859ZM27.5203 37.352V36.456C27.5203 34.664 26.5763 33.512 25.2323 33.512C23.6163 33.512 22.8803 34.792 22.8803 36.776C22.8803 38.68 23.4403 40.072 25.1203 40.072C26.6083 40.072 27.5203 38.888 27.5203 37.352ZM28.9283 28.392V41H27.5523V39.608H27.5043C27.0563 40.44 26.1443 41.208 24.8483 41.208C23.0563 41.208 21.4083 40.088 21.4083 36.84C21.4083 33.944 22.9123 32.36 25.0403 32.36C26.3043 32.36 27.1203 33.064 27.4563 33.848H27.4883V28.392H28.9283ZM41.6609 41V35.784C41.6609 35.176 41.6609 34.52 41.3569 34.12C41.0689 33.72 40.5889 33.56 40.0289 33.56C38.4609 33.56 37.7409 34.568 37.7409 35.944V41H36.3009V28.392H37.7409V33.96H37.7729C38.1409 33.144 39.0369 32.36 40.4129 32.36C42.0289 32.36 43.1009 33.128 43.1009 35.128V41H41.6609ZM48.2113 39.976C49.2833 39.976 50.6113 39.256 50.6113 37.176V36.984C48.7873 37.064 47.7473 37.208 47.2033 37.608C46.8832 37.848 46.7393 38.2 46.7393 38.648C46.7393 39.512 47.2993 39.976 48.2113 39.976ZM47.0913 34.872H45.7153C45.7473 33.384 46.8832 32.36 48.8993 32.36C50.9953 32.36 52.0193 33.24 52.0193 35.496V38.936C52.0193 39.608 52.1633 39.88 52.7873 39.896V41.064H52.6112C51.2673 41.064 50.8193 40.584 50.6753 39.576H50.6433C50.1953 40.568 49.1873 41.144 47.9393 41.144C46.2593 41.144 45.2673 40.232 45.2673 38.728C45.2673 37.8 45.6673 37.032 46.5312 36.6C47.4113 36.136 48.7233 35.976 50.6113 35.912V35.544C50.6113 34.024 50.0353 33.432 48.8513 33.432C47.6033 33.432 47.1393 34.152 47.0913 34.872ZM56.6249 41L53.6649 32.568H55.1369L56.9609 37.992C57.2009 38.68 57.3769 39.32 57.3769 39.32H57.4089C57.4089 39.32 57.5849 38.68 57.8249 37.992L59.6969 32.568H61.0729L58.1449 41H56.6249ZM67.935 36.04V35.944C67.903 34.536 67.343 33.448 65.871 33.448C64.527 33.448 63.791 34.504 63.615 36.04H67.935ZM69.295 38.792C68.991 40.248 67.743 41.208 65.935 41.208C63.359 41.208 62.127 39.336 62.127 36.824C62.127 34.328 63.471 32.36 65.887 32.36C68.415 32.36 69.407 34.312 69.407 36.44V37.176H63.599C63.695 38.92 64.399 40.104 65.983 40.104C67.391 40.104 67.759 39.288 67.903 38.792H69.295ZM81.5713 34.68H80.1953C80.1153 33.928 79.5073 33.448 78.5153 33.448C77.5233 33.448 76.8673 34.024 76.8673 34.808C76.8673 35.496 77.2833 35.816 78.1313 35.96L79.4273 36.152C81.1873 36.424 81.8273 37.144 81.8273 38.6C81.8273 40.296 80.4513 41.208 78.5312 41.208C76.7873 41.208 75.3473 40.424 75.2353 38.616H76.6432C76.7073 39.272 77.0753 40.104 78.5633 40.104C79.7153 40.104 80.4353 39.56 80.4353 38.68C80.4353 38.008 80.2593 37.64 79.1073 37.448L77.8113 37.256C76.3073 37.016 75.5073 36.392 75.5073 34.92C75.5073 33.432 76.6432 32.36 78.5633 32.36C80.3873 32.36 81.4273 33.208 81.5713 34.68ZM83.9259 41V28.392H85.3659V41H83.9259ZM88.3314 30.648V29.096H89.8514V30.648H88.3314ZM88.3634 41V32.568H89.8194V41H88.3634ZM98.1921 37.176V36.328C98.1921 34.648 97.2481 33.496 95.7921 33.496C94.2721 33.496 93.5521 34.76 93.5521 36.664C93.5521 38.52 94.0801 39.8 95.8561 39.8C97.2161 39.8 98.1921 38.616 98.1921 37.176ZM95.7281 44.184C94.1281 44.184 92.4801 43.592 92.2881 41.848H93.6801C93.8401 42.568 94.3841 43.032 95.7601 43.032C97.3601 43.032 98.1601 42.44 98.1601 40.584V39.336H98.1441C97.7121 40.168 96.7201 40.888 95.4561 40.888C93.6961 40.888 92.0801 39.784 92.0801 36.664C92.0801 33.88 93.5521 32.36 95.6321 32.36C96.9921 32.36 97.8081 33.112 98.1601 33.896H98.1921V32.568H99.5681V40.792C99.5681 43.16 98.0161 44.184 95.7281 44.184ZM107.942 41V35.784C107.942 35.176 107.942 34.52 107.638 34.12C107.35 33.72 106.87 33.56 106.31 33.56C104.742 33.56 104.022 34.568 104.022 35.944V41H102.582V28.392H104.022V33.96H104.054C104.422 33.144 105.318 32.36 106.694 32.36C108.31 32.36 109.382 33.128 109.382 35.128V41H107.942ZM112.781 30.12H114.093V32.568H116.173V33.672H114.093V38.648C114.093 39.544 114.461 39.896 115.373 39.896C115.805 39.896 116.301 39.816 116.301 39.816V41.032C116.301 41.032 115.709 41.128 114.973 41.128C113.325 41.128 112.669 40.328 112.669 38.888V33.672H111.133V32.616H111.389C112.525 32.616 112.781 32.344 112.781 30.728V30.12ZM118.129 41V28.392H119.569V41H118.129ZM124.536 41L121.592 32.568H123.032L124.792 37.848C125.064 38.648 125.208 39.16 125.208 39.16H125.256C125.256 39.16 125.4 38.648 125.672 37.832L127.4 32.568H128.84L125.768 41.528C125.096 43.464 124.536 44.184 122.712 44.184C122.392 44.184 122.072 44.136 121.848 44.088V42.904C122.12 42.968 122.44 42.984 122.584 42.984C123.656 42.984 124.008 42.584 124.376 41.448L124.536 41ZM135.16 41V32.568H136.52V33.992H136.552C136.936 33.128 137.912 32.36 139.256 32.36C140.536 32.36 141.496 32.936 141.8 34.104H141.832C142.152 33.224 143.192 32.36 144.584 32.36C146.168 32.36 147.256 33.128 147.256 35.128V41H145.816V35.784C145.816 35.176 145.816 34.52 145.512 34.104C145.224 33.704 144.76 33.56 144.2 33.56C142.632 33.56 141.928 34.568 141.928 35.944V41H140.488V35.784C140.488 35.176 140.488 34.536 140.184 34.12C139.896 33.72 139.432 33.56 138.872 33.56C137.304 33.56 136.6 34.568 136.6 35.912V41H135.16ZM153.2 41.208C150.72 41.208 149.44 39.416 149.44 36.776C149.44 34.168 150.88 32.36 153.232 32.36C155.744 32.36 156.992 34.168 156.992 36.776C156.992 39.416 155.568 41.208 153.2 41.208ZM153.216 33.464C151.68 33.464 150.928 34.728 150.928 36.776C150.928 38.84 151.616 40.088 153.248 40.088C154.816 40.088 155.504 38.84 155.504 36.776C155.504 34.728 154.832 33.464 153.216 33.464ZM159.27 41V32.568H160.63V34.152H160.662C161.046 33.272 162.102 32.408 163.334 32.408H163.478V33.912H163.206C161.702 33.912 160.71 34.776 160.71 36.408V41H159.27ZM170.419 36.04V35.944C170.387 34.536 169.827 33.448 168.355 33.448C167.011 33.448 166.275 34.504 166.099 36.04H170.419ZM171.779 38.792C171.475 40.248 170.227 41.208 168.419 41.208C165.843 41.208 164.611 39.336 164.611 36.824C164.611 34.328 165.955 32.36 168.371 32.36C170.899 32.36 171.891 34.312 171.891 36.44V37.176H166.083C166.179 38.92 166.883 40.104 168.467 40.104C169.875 40.104 170.243 39.288 170.387 38.792H171.779ZM183.88 37.352V36.456C183.88 34.664 182.936 33.512 181.592 33.512C179.976 33.512 179.24 34.792 179.24 36.776C179.24 38.68 179.8 40.072 181.48 40.072C182.968 40.072 183.88 38.888 183.88 37.352ZM185.288 28.392V41H183.912V39.608H183.864C183.416 40.44 182.504 41.208 181.208 41.208C179.416 41.208 177.768 40.088 177.768 36.84C177.768 33.944 179.272 32.36 181.4 32.36C182.664 32.36 183.48 33.064 183.816 33.848H183.848V28.392H185.288ZM193.357 36.04V35.944C193.325 34.536 192.765 33.448 191.293 33.448C189.949 33.448 189.213 34.504 189.037 36.04H193.357ZM194.717 38.792C194.413 40.248 193.165 41.208 191.357 41.208C188.781 41.208 187.549 39.336 187.549 36.824C187.549 34.328 188.893 32.36 191.309 32.36C193.837 32.36 194.829 34.312 194.829 36.44V37.176H189.021C189.117 38.92 189.821 40.104 191.405 40.104C192.813 40.104 193.181 39.288 193.325 38.792H194.717ZM197.562 30.12H198.874V32.568H200.954V33.672H198.874V38.648C198.874 39.544 199.242 39.896 200.154 39.896C200.586 39.896 201.082 39.816 201.082 39.816V41.032C201.082 41.032 200.49 41.128 199.754 41.128C198.106 41.128 197.45 40.328 197.45 38.888V33.672H195.914V32.616H196.17C197.306 32.616 197.562 32.344 197.562 30.728V30.12ZM205.727 39.976C206.799 39.976 208.127 39.256 208.127 37.176V36.984C206.303 37.064 205.263 37.208 204.719 37.608C204.399 37.848 204.255 38.2 204.255 38.648C204.255 39.512 204.815 39.976 205.727 39.976ZM204.607 34.872H203.231C203.263 33.384 204.399 32.36 206.415 32.36C208.511 32.36 209.535 33.24 209.535 35.496V38.936C209.535 39.608 209.679 39.88 210.303 39.896V41.064H210.127C208.783 41.064 208.335 40.584 208.191 39.576H208.159C207.711 40.568 206.703 41.144 205.455 41.144C203.775 41.144 202.783 40.232 202.783 38.728C202.783 37.8 203.183 37.032 204.047 36.6C204.927 36.136 206.239 35.976 208.127 35.912V35.544C208.127 34.024 207.551 33.432 206.367 33.432C205.119 33.432 204.655 34.152 204.607 34.872ZM212.363 30.648V29.096H213.883V30.648H212.363ZM212.395 41V32.568H213.851V41H212.395ZM216.863 41V28.392H218.303V41H216.863ZM226.124 30.12H227.436V32.568H229.516V33.672H227.436V38.648C227.436 39.544 227.804 39.896 228.716 39.896C229.148 39.896 229.644 39.816 229.644 39.816V41.032C229.644 41.032 229.052 41.128 228.316 41.128C226.668 41.128 226.012 40.328 226.012 38.888V33.672H224.476V32.616H224.732C225.868 32.616 226.124 32.344 226.124 30.728V30.12ZM236.833 41V35.784C236.833 35.176 236.833 34.52 236.529 34.12C236.241 33.72 235.761 33.56 235.201 33.56C233.633 33.56 232.913 34.568 232.913 35.944V41H231.473V28.392H232.913V33.96H232.945C233.313 33.144 234.209 32.36 235.585 32.36C237.201 32.36 238.273 33.128 238.273 35.128V41H236.833ZM243.383 39.976C244.455 39.976 245.783 39.256 245.783 37.176V36.984C243.959 37.064 242.919 37.208 242.375 37.608C242.055 37.848 241.911 38.2 241.911 38.648C241.911 39.512 242.471 39.976 243.383 39.976ZM242.263 34.872H240.887C240.919 33.384 242.055 32.36 244.071 32.36C246.167 32.36 247.191 33.24 247.191 35.496V38.936C247.191 39.608 247.335 39.88 247.959 39.896V41.064H247.783C246.439 41.064 245.991 40.584 245.847 39.576H245.815C245.367 40.568 244.359 41.144 243.111 41.144C241.431 41.144 240.439 40.232 240.439 38.728C240.439 37.8 240.839 37.032 241.703 36.6C242.583 36.136 243.895 35.976 245.783 35.912V35.544C245.783 34.024 245.207 33.432 244.023 33.432C242.775 33.432 242.311 34.152 242.263 34.872ZM255.411 41V35.8C255.411 35.192 255.411 34.52 255.107 34.12C254.819 33.72 254.339 33.56 253.779 33.56C252.211 33.56 251.491 34.568 251.491 35.944V41H250.051V32.568H251.411V33.992H251.443C251.843 33.128 252.819 32.36 254.163 32.36C255.779 32.36 256.851 33.128 256.851 35.128V41H255.411ZM264.113 36.92V28.76H265.601V35.8C265.601 36.92 265.617 38.232 266.225 38.984C266.801 39.704 267.665 40.024 268.785 40.024C269.905 40.024 270.785 39.704 271.345 38.984C271.953 38.232 271.921 36.92 271.921 35.8V28.76H273.393V36.92C273.393 39.992 271.521 41.24 268.753 41.24C265.953 41.24 264.113 40.024 264.113 36.92ZM276.523 41V28.76H278.011V41H276.523ZM285.519 30.648V29.096H287.039V30.648H285.519ZM285.551 41V32.568H287.007V41H285.551ZM296.388 35.112H294.98C294.884 34.248 294.276 33.464 293.06 33.464C291.54 33.464 290.74 34.792 290.74 36.76C290.74 38.712 291.332 40.072 293.028 40.072C294.628 40.072 295.044 38.888 295.092 38.248H296.436C296.228 40.2 294.836 41.192 293.012 41.192C290.58 41.192 289.268 39.496 289.268 36.824C289.268 34.248 290.676 32.36 293.044 32.36C294.724 32.36 296.244 33.128 296.388 35.112ZM301.684 41.208C299.204 41.208 297.924 39.416 297.924 36.776C297.924 34.168 299.364 32.36 301.716 32.36C304.228 32.36 305.476 34.168 305.476 36.776C305.476 39.416 304.052 41.208 301.684 41.208ZM301.7 33.464C300.164 33.464 299.412 34.728 299.412 36.776C299.412 38.84 300.1 40.088 301.732 40.088C303.3 40.088 303.988 38.84 303.988 36.776C303.988 34.728 303.316 33.464 301.7 33.464ZM313.114 41V35.8C313.114 35.192 313.114 34.52 312.81 34.12C312.522 33.72 312.042 33.56 311.482 33.56C309.914 33.56 309.194 34.568 309.194 35.944V41H307.754V32.568H309.114V33.992H309.146C309.546 33.128 310.522 32.36 311.866 32.36C313.482 32.36 314.554 33.128 314.554 35.128V41H313.114ZM323.024 34.68H321.648C321.568 33.928 320.96 33.448 319.968 33.448C318.976 33.448 318.32 34.024 318.32 34.808C318.32 35.496 318.736 35.816 319.584 35.96L320.88 36.152C322.64 36.424 323.28 37.144 323.28 38.6C323.28 40.296 321.904 41.208 319.984 41.208C318.24 41.208 316.8 40.424 316.688 38.616H318.096C318.16 39.272 318.528 40.104 320.016 40.104C321.168 40.104 321.888 39.56 321.888 38.68C321.888 38.008 321.712 37.64 320.56 37.448L319.264 37.256C317.76 37.016 316.96 36.392 316.96 34.92C316.96 33.432 318.096 32.36 320.016 32.36C321.84 32.36 322.88 33.208 323.024 34.68ZM325.037 41V39.048H326.989V41H325.037Z" fill="#BBB5AE"/>
<path d="M99.5 68C99.5 63.8579 102.858 60.5 107 60.5H223C227.142 60.5 230.5 63.8579 230.5 68V84C230.5 88.1421 227.142 91.5 223 91.5H107C102.858 91.5 99.5 88.1421 99.5 84V68Z" stroke="white"/>
<path fill-rule="evenodd" clip-rule="evenodd" d="M113.667 70.1666L110.333 72.25L113.667 74.3333L110.333 76.4166L113.667 78.5L117 76.4166L120.333 78.5L123.667 76.4166L120.333 74.3333L123.667 72.2787L120.333 70.1666L117 72.25L113.667 70.1666ZM117 72.25L120.333 74.3333L117 76.4166L113.667 74.3333L117 72.25Z" fill="white"/>
<path d="M113.667 79.75L117 77.6666L120.333 79.75L117 81.8333L113.667 79.75Z" fill="white"/>
<path fill-rule="evenodd" clip-rule="evenodd" d="M149.416 74.5417C149.416 73.5333 149.866 73.0833 150.875 73.0833H151.5V71.8333H150.875C149.866 71.8333 149.416 71.3833 149.416 70.375V69.75H148.166V70.375C148.166 71.3833 147.717 71.8333 146.708 71.8333H146.083C144.488 71.8333 143.167 73.1548 143.167 74.75C143.167 76.3452 144.488 77.6667 146.083 77.6667L146.083 76.4167C145.178 76.4167 144.417 75.6548 144.417 74.75C144.417 73.8452 145.178 73.0833 146.083 73.0833H146.708C147.717 73.0833 148.166 73.5333 148.166 74.5417V75.1667H149.416V74.5417ZM148.166 71.8333H149.416V73.0833H148.166V71.8333Z" fill="white"/>
<path fill-rule="evenodd" clip-rule="evenodd" d="M153.167 77.25C153.167 76.3452 152.405 75.5833 151.5 75.5833L151.5 74.3333C153.095 74.3333 154.417 75.6548 154.417 77.25C154.416 78.8452 153.095 80.1667 151.5 80.1667H150.875C149.866 80.1667 149.417 80.6167 149.417 81.625V82.25H148.167V81.625C148.167 80.6167 147.717 80.1667 146.708 80.1667H146.083V78.9167H146.708C147.717 78.9167 148.167 78.4667 148.167 77.4583V76.8333H149.417V77.4583C149.417 78.4667 149.866 78.9167 150.875 78.9167H151.5C152.405 78.9167 153.166 78.1548 153.167 77.25ZM149.417 80.1667H148.167V78.9167H149.417V80.1667Z" fill="white"/>
<path d="M181 73.0833H176.833V74.3333H181V73.0833Z" fill="white"/>
<path fill-rule="evenodd" clip-rule="evenodd" d="M175.529 79.3333V77.7007H175.368C174.983 77.7007 174.614 77.5454 174.342 77.269C174.069 76.9925 173.917 76.6176 173.917 76.2266V71.6407C173.917 71.2497 174.069 70.8748 174.342 70.5984C174.614 70.3219 174.983 70.1666 175.368 70.1666H182.465C182.656 70.1666 182.844 70.2048 183.02 70.2788C183.197 70.3529 183.357 70.4615 183.491 70.5984C183.626 70.7352 183.733 70.8977 183.806 71.0766C183.879 71.2554 183.917 71.4471 183.917 71.6407V72.6666H186.632C187.017 72.6666 187.386 72.8219 187.658 73.0984C187.93 73.3748 188.083 73.7497 188.083 74.1407V78.7266C188.083 79.1176 187.93 79.4925 187.658 79.769C187.386 80.0454 187.017 80.2007 186.632 80.2007H186.47V81.8333L183.415 80.2007H179.535C179.344 80.2007 179.155 80.1626 178.979 80.0885C178.803 80.0144 178.643 79.9058 178.508 79.769C178.374 79.6321 178.267 79.4696 178.194 79.2907C178.121 79.1119 178.083 78.9202 178.083 78.7266V77.9686L175.529 79.3333ZM183.917 76.2266V73.9166H186.632C186.679 73.9166 186.728 73.9355 186.767 73.9754C186.807 74.016 186.833 74.0751 186.833 74.1407V78.7266C186.833 78.7922 186.807 78.8513 186.767 78.8919C186.728 78.9318 186.679 78.9507 186.632 78.9507H185.22V79.748L183.728 78.9507H179.535C179.511 78.9507 179.487 78.946 179.464 78.9363C179.441 78.9266 179.419 78.9118 179.399 78.8919C179.379 78.8719 179.363 78.8472 179.351 78.8186C179.339 78.79 179.333 78.7587 179.333 78.7266V77.7007H182.465C182.656 77.7007 182.844 77.6626 183.02 77.5885C183.197 77.5144 183.357 77.4058 183.491 77.269C183.626 77.1321 183.733 76.9696 183.806 76.7907C183.879 76.6119 183.917 76.4202 183.917 76.2266ZM176.779 76.4507V77.248L178.272 76.4507H182.465C182.489 76.4507 182.513 76.446 182.536 76.4363C182.559 76.4266 182.581 76.4118 182.601 76.3919C182.62 76.3719 182.637 76.3472 182.649 76.3186C182.66 76.29 182.667 76.2587 182.667 76.2266V71.6407C182.667 71.6086 182.66 71.5773 182.649 71.5487C182.637 71.5201 182.62 71.4954 182.601 71.4754C182.581 71.4555 182.559 71.4408 182.536 71.4311C182.513 71.4214 182.489 71.4166 182.465 71.4166H175.368C175.321 71.4166 175.272 71.4355 175.232 71.4754C175.192 71.516 175.167 71.5751 175.167 71.6407V76.2266C175.167 76.2922 175.192 76.3513 175.232 76.3919C175.272 76.4318 175.321 76.4507 175.368 76.4507H176.779Z" fill="white"/>
<path d="M212.792 78.5C214.719 78.5 215.917 77.3025 215.917 75.375V72.4584C215.917 70.5309 214.719 69.3334 212.792 69.3334C210.864 69.3334 209.667 70.5309 209.667 72.4584V75.375C209.667 77.3025 210.864 78.5 212.792 78.5ZM210.917 72.4584C210.917 71.2142 211.548 70.5834 212.792 70.5834C214.036 70.5834 214.667 71.2142 214.667 72.4584V75.375C214.667 76.6192 214.036 77.25 212.792 77.25C211.548 77.25 210.917 76.6192 210.917 75.375V72.4584Z" fill="white"/>
<path d="M218.413 75.375H217.163C217.163 78.278 215.692 79.75 212.792 79.75C209.891 79.75 208.421 78.278 208.421 75.375H207.171C207.171 78.7355 208.982 80.748 212.167 80.9771V82.6667H213.417V80.9771C216.601 80.748 218.413 78.7355 218.413 75.375Z" fill="white"/>
</svg>
