<svg width="290" height="92" viewBox="0 0 290 92" fill="none" xmlns="http://www.w3.org/2000/svg">
<path d="M19.6908 12.92V4.76H21.1788V11.8C21.1788 12.92 21.1948 14.232 21.8028 14.984C22.3788 15.704 23.2428 16.024 24.3628 16.024C25.4828 16.024 26.3628 15.704 26.9228 14.984C27.5308 14.232 27.4988 12.92 27.4988 11.8V4.76H28.9708V12.92C28.9708 15.992 27.0988 17.24 24.3308 17.24C21.5308 17.24 19.6908 16.024 19.6908 12.92ZM32.1015 17V4.76H33.5895V17H32.1015ZM41.097 6.648V5.096H42.617V6.648H41.097ZM41.129 17V8.568H42.585V17H41.129ZM51.9658 11.112H50.5578C50.4618 10.248 49.8538 9.464 48.6378 9.464C47.1178 9.464 46.3178 10.792 46.3178 12.76C46.3178 14.712 46.9098 16.072 48.6058 16.072C50.2058 16.072 50.6218 14.888 50.6698 14.248H52.0138C51.8058 16.2 50.4138 17.192 48.5898 17.192C46.1578 17.192 44.8458 15.496 44.8458 12.824C44.8458 10.248 46.2538 8.36 48.6218 8.36C50.3018 8.36 51.8218 9.128 51.9658 11.112ZM57.262 17.208C54.782 17.208 53.502 15.416 53.502 12.776C53.502 10.168 54.942 8.36 57.294 8.36C59.806 8.36 61.054 10.168 61.054 12.776C61.054 15.416 59.63 17.208 57.262 17.208ZM57.278 9.464C55.742 9.464 54.99 10.728 54.99 12.776C54.99 14.84 55.678 16.088 57.31 16.088C58.878 16.088 59.566 14.84 59.566 12.776C59.566 10.728 58.894 9.464 57.278 9.464ZM68.6921 17V11.8C68.6921 11.192 68.6921 10.52 68.3881 10.12C68.1001 9.72 67.6201 9.56 67.0601 9.56C65.4921 9.56 64.7721 10.568 64.7721 11.944V17H63.3321V8.568H64.6921V9.992H64.7241C65.1241 9.128 66.1001 8.36 67.4441 8.36C69.0601 8.36 70.1321 9.128 70.1321 11.128V17H68.6921ZM78.6025 10.68H77.2265C77.1465 9.928 76.5385 9.448 75.5465 9.448C74.5545 9.448 73.8985 10.024 73.8985 10.808C73.8985 11.496 74.3145 11.816 75.1625 11.96L76.4585 12.152C78.2185 12.424 78.8585 13.144 78.8585 14.6C78.8585 16.296 77.4825 17.208 75.5625 17.208C73.8185 17.208 72.3785 16.424 72.2665 14.616H73.6745C73.7385 15.272 74.1065 16.104 75.5945 16.104C76.7465 16.104 77.4665 15.56 77.4665 14.68C77.4665 14.008 77.2905 13.64 76.1385 13.448L74.8425 13.256C73.3385 13.016 72.5385 12.392 72.5385 10.92C72.5385 9.432 73.6745 8.36 75.5945 8.36C77.4185 8.36 78.4585 9.208 78.6025 10.68ZM90.8328 17V11.784C90.8328 11.176 90.8328 10.52 90.5288 10.12C90.2408 9.72 89.7608 9.56 89.2008 9.56C87.6328 9.56 86.9128 10.568 86.9128 11.944V17H85.4728V4.392H86.9128V9.96H86.9448C87.3128 9.144 88.2088 8.36 89.5848 8.36C91.2008 8.36 92.2728 9.128 92.2728 11.128V17H90.8328ZM97.3831 15.976C98.4551 15.976 99.7831 15.256 99.7831 13.176V12.984C97.9591 13.064 96.9191 13.208 96.3751 13.608C96.0551 13.848 95.9111 14.2 95.9111 14.648C95.9111 15.512 96.4711 15.976 97.3831 15.976ZM96.2631 10.872H94.8871C94.9191 9.384 96.0551 8.36 98.0711 8.36C100.167 8.36 101.191 9.24 101.191 11.496V14.936C101.191 15.608 101.335 15.88 101.959 15.896V17.064H101.783C100.439 17.064 99.9911 16.584 99.8471 15.576H99.8151C99.3671 16.568 98.3591 17.144 97.1111 17.144C95.4311 17.144 94.4391 16.232 94.4391 14.728C94.4391 13.8 94.8391 13.032 95.7031 12.6C96.5831 12.136 97.8951 11.976 99.7831 11.912V11.544C99.7831 10.024 99.2071 9.432 98.0231 9.432C96.7751 9.432 96.3111 10.152 96.2631 10.872ZM105.797 17L102.837 8.568H104.309L106.133 13.992C106.373 14.68 106.549 15.32 106.549 15.32H106.581C106.581 15.32 106.757 14.68 106.997 13.992L108.869 8.568H110.245L107.317 17H105.797ZM117.107 12.04V11.944C117.075 10.536 116.515 9.448 115.043 9.448C113.699 9.448 112.963 10.504 112.787 12.04H117.107ZM118.467 14.792C118.163 16.248 116.915 17.208 115.107 17.208C112.531 17.208 111.299 15.336 111.299 12.824C111.299 10.328 112.643 8.36 115.059 8.36C117.587 8.36 118.579 10.312 118.579 12.44V13.176H112.771C112.867 14.92 113.571 16.104 115.155 16.104C116.563 16.104 116.931 15.288 117.075 14.792H118.467ZM127.383 15.976C128.455 15.976 129.783 15.256 129.783 13.176V12.984C127.959 13.064 126.919 13.208 126.375 13.608C126.055 13.848 125.911 14.2 125.911 14.648C125.911 15.512 126.471 15.976 127.383 15.976ZM126.263 10.872H124.887C124.919 9.384 126.055 8.36 128.071 8.36C130.167 8.36 131.191 9.24 131.191 11.496V14.936C131.191 15.608 131.335 15.88 131.959 15.896V17.064H131.783C130.439 17.064 129.991 16.584 129.847 15.576H129.815C129.367 16.568 128.359 17.144 127.111 17.144C125.431 17.144 124.439 16.232 124.439 14.728C124.439 13.8 124.839 13.032 125.703 12.6C126.583 12.136 127.895 11.976 129.783 11.912V11.544C129.783 10.024 129.207 9.432 128.023 9.432C126.775 9.432 126.311 10.152 126.263 10.872ZM138.41 17V8.568H139.77V9.992H139.802C140.186 9.128 141.162 8.36 142.506 8.36C143.786 8.36 144.746 8.936 145.05 10.104H145.082C145.402 9.224 146.442 8.36 147.834 8.36C149.418 8.36 150.506 9.128 150.506 11.128V17H149.066V11.784C149.066 11.176 149.066 10.52 148.762 10.104C148.474 9.704 148.01 9.56 147.45 9.56C145.882 9.56 145.178 10.568 145.178 11.944V17H143.738V11.784C143.738 11.176 143.738 10.536 143.434 10.12C143.146 9.72 142.682 9.56 142.122 9.56C140.554 9.56 139.85 10.568 139.85 11.912V17H138.41ZM153.41 6.648V5.096H154.93V6.648H153.41ZM153.442 17V8.568H154.898V17H153.442ZM163.27 17V11.8C163.27 11.192 163.27 10.52 162.966 10.12C162.678 9.72 162.198 9.56 161.638 9.56C160.07 9.56 159.35 10.568 159.35 11.944V17H157.91V8.568H159.27V9.992H159.302C159.702 9.128 160.678 8.36 162.022 8.36C163.638 8.36 164.71 9.128 164.71 11.128V17H163.27ZM167.613 6.648V5.096H169.133V6.648H167.613ZM167.645 17V8.568H169.101V17H167.645ZM172.113 17V8.568H173.473V9.992H173.505C173.889 9.128 174.865 8.36 176.209 8.36C177.489 8.36 178.449 8.936 178.753 10.104H178.785C179.105 9.224 180.145 8.36 181.537 8.36C183.121 8.36 184.209 9.128 184.209 11.128V17H182.769V11.784C182.769 11.176 182.769 10.52 182.465 10.104C182.177 9.704 181.713 9.56 181.153 9.56C179.585 9.56 178.881 10.568 178.881 11.944V17H177.441V11.784C177.441 11.176 177.441 10.536 177.137 10.12C176.849 9.72 176.385 9.56 175.825 9.56C174.257 9.56 173.553 10.568 173.553 11.912V17H172.113ZM189.321 15.976C190.393 15.976 191.721 15.256 191.721 13.176V12.984C189.897 13.064 188.857 13.208 188.313 13.608C187.993 13.848 187.849 14.2 187.849 14.648C187.849 15.512 188.409 15.976 189.321 15.976ZM188.201 10.872H186.825C186.857 9.384 187.993 8.36 190.009 8.36C192.105 8.36 193.129 9.24 193.129 11.496V14.936C193.129 15.608 193.273 15.88 193.897 15.896V17.064H193.721C192.377 17.064 191.929 16.584 191.785 15.576H191.753C191.305 16.568 190.297 17.144 189.049 17.144C187.369 17.144 186.377 16.232 186.377 14.728C186.377 13.8 186.777 13.032 187.641 12.6C188.521 12.136 189.833 11.976 191.721 11.912V11.544C191.721 10.024 191.145 9.432 189.961 9.432C188.713 9.432 188.249 10.152 188.201 10.872ZM195.988 17V4.392H197.428V17H195.988ZM206.561 9.672V17H205.121V9.672H203.585V8.568H205.121V6.68C205.121 4.952 206.113 4.344 207.681 4.344C208.001 4.344 208.321 4.376 208.577 4.424V5.608C208.417 5.576 208.161 5.544 207.793 5.544C206.961 5.544 206.561 5.848 206.561 6.856V8.568H208.577V9.672H206.561ZM213.371 17.208C210.891 17.208 209.611 15.416 209.611 12.776C209.611 10.168 211.051 8.36 213.403 8.36C215.915 8.36 217.163 10.168 217.163 12.776C217.163 15.416 215.739 17.208 213.371 17.208ZM213.387 9.464C211.851 9.464 211.099 10.728 211.099 12.776C211.099 14.84 211.787 16.088 213.419 16.088C214.987 16.088 215.675 14.84 215.675 12.776C215.675 10.728 215.003 9.464 213.387 9.464ZM219.442 17V8.568H220.802V10.152H220.834C221.218 9.272 222.274 8.408 223.506 8.408H223.65V9.912H223.378C221.874 9.912 220.882 10.776 220.882 12.408V17H219.442ZM225.535 17V8.568H226.895V9.992H226.927C227.311 9.128 228.287 8.36 229.631 8.36C230.911 8.36 231.871 8.936 232.175 10.104H232.207C232.527 9.224 233.567 8.36 234.959 8.36C236.543 8.36 237.631 9.128 237.631 11.128V17H236.191V11.784C236.191 11.176 236.191 10.52 235.887 10.104C235.599 9.704 235.135 9.56 234.575 9.56C233.007 9.56 232.303 10.568 232.303 11.944V17H230.863V11.784C230.863 11.176 230.863 10.536 230.559 10.12C230.271 9.72 229.807 9.56 229.247 9.56C227.679 9.56 226.975 10.568 226.975 11.912V17H225.535ZM247.102 15.976C248.174 15.976 249.502 15.256 249.502 13.176V12.984C247.678 13.064 246.638 13.208 246.094 13.608C245.774 13.848 245.63 14.2 245.63 14.648C245.63 15.512 246.19 15.976 247.102 15.976ZM245.982 10.872H244.606C244.638 9.384 245.774 8.36 247.79 8.36C249.886 8.36 250.91 9.24 250.91 11.496V14.936C250.91 15.608 251.054 15.88 251.678 15.896V17.064H251.502C250.158 17.064 249.71 16.584 249.566 15.576H249.534C249.086 16.568 248.078 17.144 246.83 17.144C245.15 17.144 244.158 16.232 244.158 14.728C244.158 13.8 244.558 13.032 245.422 12.6C246.302 12.136 247.614 11.976 249.502 11.912V11.544C249.502 10.024 248.926 9.432 247.742 9.432C246.494 9.432 246.03 10.152 245.982 10.872ZM259.13 17V11.8C259.13 11.192 259.13 10.52 258.826 10.12C258.538 9.72 258.058 9.56 257.498 9.56C255.93 9.56 255.21 10.568 255.21 11.944V17H253.77V8.568H255.13V9.992H255.162C255.562 9.128 256.538 8.36 257.882 8.36C259.498 8.36 260.57 9.128 260.57 11.128V17H259.13ZM268.864 13.352V12.456C268.864 10.664 267.92 9.512 266.576 9.512C264.96 9.512 264.224 10.792 264.224 12.776C264.224 14.68 264.784 16.072 266.464 16.072C267.952 16.072 268.864 14.888 268.864 13.352ZM270.272 4.392V17H268.896V15.608H268.848C268.4 16.44 267.488 17.208 266.192 17.208C264.4 17.208 262.752 16.088 262.752 12.84C262.752 9.944 264.256 8.36 266.384 8.36C267.648 8.36 268.464 9.064 268.8 9.848H268.832V4.392H270.272ZM27.3334 36.04V35.944C27.3014 34.536 26.7414 33.448 25.2694 33.448C23.9254 33.448 23.1894 34.504 23.0134 36.04H27.3334ZM28.6934 38.792C28.3894 40.248 27.1414 41.208 25.3334 41.208C22.7574 41.208 21.5254 39.336 21.5254 36.824C21.5254 34.328 22.8694 32.36 25.2854 32.36C27.8134 32.36 28.8054 34.312 28.8054 36.44V37.176H22.9974C23.0934 38.92 23.7974 40.104 25.3814 40.104C26.7894 40.104 27.1574 39.288 27.3014 38.792H28.6934ZM29.7962 41L32.6762 36.648L30.0042 32.568H31.7002L33.5402 35.512H33.5722L35.4602 32.568H37.0282L34.3722 36.568L37.3002 41H35.5882L33.4922 37.704H33.4442L31.3642 41H29.7962ZM40.4194 37.096C40.4194 38.76 41.2354 40.072 42.8354 40.072C44.3394 40.072 45.0754 38.872 45.0754 36.664C45.0754 34.872 44.5474 33.512 42.8194 33.512C41.3314 33.512 40.4194 34.776 40.4194 36.2V37.096ZM39.0274 44.008V32.568H40.4194V33.976H40.4514C40.9474 33.08 41.8594 32.36 43.1394 32.36C44.9314 32.36 46.5314 33.464 46.5314 36.664C46.5314 39.736 44.9474 41.208 43.0434 41.208C41.8114 41.208 40.8194 40.52 40.4994 39.768H40.4674V44.008H39.0274ZM48.8087 41V32.568H50.1687V34.152H50.2007C50.5847 33.272 51.6407 32.408 52.8727 32.408H53.0167V33.912H52.7447C51.2407 33.912 50.2487 34.776 50.2487 36.408V41H48.8087ZM59.9584 36.04V35.944C59.9264 34.536 59.3664 33.448 57.8944 33.448C56.5504 33.448 55.8144 34.504 55.6384 36.04H59.9584ZM61.3184 38.792C61.0144 40.248 59.7664 41.208 57.9584 41.208C55.3824 41.208 54.1504 39.336 54.1504 36.824C54.1504 34.328 55.4944 32.36 57.9104 32.36C60.4384 32.36 61.4304 34.312 61.4304 36.44V37.176H55.6224C55.7184 38.92 56.4224 40.104 58.0064 40.104C59.4144 40.104 59.7824 39.288 59.9264 38.792H61.3184ZM69.2353 34.68H67.8593C67.7793 33.928 67.1713 33.448 66.1793 33.448C65.1873 33.448 64.5313 34.024 64.5313 34.808C64.5313 35.496 64.9473 35.816 65.7953 35.96L67.0913 36.152C68.8513 36.424 69.4913 37.144 69.4913 38.6C69.4913 40.296 68.1153 41.208 66.1953 41.208C64.4513 41.208 63.0113 40.424 62.8993 38.616H64.3073C64.3713 39.272 64.7393 40.104 66.2273 40.104C67.3793 40.104 68.0993 39.56 68.0993 38.68C68.0993 38.008 67.9233 37.64 66.7713 37.448L65.4753 37.256C63.9713 37.016 63.1713 36.392 63.1713 34.92C63.1713 33.432 64.3073 32.36 66.2273 32.36C68.0513 32.36 69.0913 33.208 69.2353 34.68ZM77.2822 34.68H75.9062C75.8262 33.928 75.2182 33.448 74.2262 33.448C73.2342 33.448 72.5782 34.024 72.5782 34.808C72.5782 35.496 72.9942 35.816 73.8422 35.96L75.1382 36.152C76.8982 36.424 77.5382 37.144 77.5382 38.6C77.5382 40.296 76.1622 41.208 74.2422 41.208C72.4982 41.208 71.0582 40.424 70.9462 38.616H72.3542C72.4182 39.272 72.7862 40.104 74.2742 40.104C75.4262 40.104 76.1462 39.56 76.1462 38.68C76.1462 38.008 75.9702 37.64 74.8182 37.448L73.5222 37.256C72.0182 37.016 71.2182 36.392 71.2182 34.92C71.2182 33.432 72.3542 32.36 74.2742 32.36C76.0982 32.36 77.1382 33.208 77.2822 34.68ZM89.2084 36.04V35.944C89.1764 34.536 88.6164 33.448 87.1444 33.448C85.8004 33.448 85.0644 34.504 84.8884 36.04H89.2084ZM90.5684 38.792C90.2644 40.248 89.0164 41.208 87.2084 41.208C84.6324 41.208 83.4004 39.336 83.4004 36.824C83.4004 34.328 84.7444 32.36 87.1604 32.36C89.6884 32.36 90.6804 34.312 90.6804 36.44V37.176H84.8724C84.9684 38.92 85.6724 40.104 87.2564 40.104C88.6644 40.104 89.0324 39.288 89.1764 38.792H90.5684ZM98.4853 34.68H97.1093C97.0293 33.928 96.4213 33.448 95.4293 33.448C94.4373 33.448 93.7813 34.024 93.7813 34.808C93.7813 35.496 94.1973 35.816 95.0453 35.96L96.3413 36.152C98.1013 36.424 98.7413 37.144 98.7413 38.6C98.7413 40.296 97.3653 41.208 95.4453 41.208C93.7013 41.208 92.2613 40.424 92.1493 38.616H93.5573C93.6213 39.272 93.9893 40.104 95.4773 40.104C96.6293 40.104 97.3493 39.56 97.3493 38.68C97.3493 38.008 97.1733 37.64 96.0213 37.448L94.7253 37.256C93.2213 37.016 92.4213 36.392 92.4213 34.92C92.4213 33.432 93.5573 32.36 95.4773 32.36C97.3013 32.36 98.3413 33.208 98.4853 34.68ZM106.532 34.68H105.156C105.076 33.928 104.468 33.448 103.476 33.448C102.484 33.448 101.828 34.024 101.828 34.808C101.828 35.496 102.244 35.816 103.092 35.96L104.388 36.152C106.148 36.424 106.788 37.144 106.788 38.6C106.788 40.296 105.412 41.208 103.492 41.208C101.748 41.208 100.308 40.424 100.196 38.616H101.604C101.668 39.272 102.036 40.104 103.524 40.104C104.676 40.104 105.396 39.56 105.396 38.68C105.396 38.008 105.22 37.64 104.068 37.448L102.772 37.256C101.268 37.016 100.468 36.392 100.468 34.92C100.468 33.432 101.604 32.36 103.524 32.36C105.348 32.36 106.388 33.208 106.532 34.68ZM114.177 36.04V35.944C114.145 34.536 113.585 33.448 112.113 33.448C110.769 33.448 110.033 34.504 109.857 36.04H114.177ZM115.537 38.792C115.233 40.248 113.985 41.208 112.177 41.208C109.601 41.208 108.369 39.336 108.369 36.824C108.369 34.328 109.713 32.36 112.129 32.36C114.657 32.36 115.649 34.312 115.649 36.44V37.176H109.841C109.937 38.92 110.641 40.104 112.225 40.104C113.633 40.104 114.001 39.288 114.145 38.792H115.537ZM123.2 41V35.8C123.2 35.192 123.2 34.52 122.896 34.12C122.608 33.72 122.128 33.56 121.568 33.56C120 33.56 119.28 34.568 119.28 35.944V41H117.84V32.568H119.2V33.992H119.232C119.632 33.128 120.608 32.36 121.952 32.36C123.568 32.36 124.64 33.128 124.64 35.128V41H123.2ZM128.038 30.12H129.35V32.568H131.43V33.672H129.35V38.648C129.35 39.544 129.718 39.896 130.63 39.896C131.062 39.896 131.558 39.816 131.558 39.816V41.032C131.558 41.032 130.966 41.128 130.23 41.128C128.582 41.128 127.926 40.328 127.926 38.888V33.672H126.39V32.616H126.646C127.782 32.616 128.038 32.344 128.038 30.728V30.12ZM133.511 30.648V29.096H135.031V30.648H133.511ZM133.543 41V32.568H134.999V41H133.543ZM140.188 39.976C141.26 39.976 142.588 39.256 142.588 37.176V36.984C140.764 37.064 139.724 37.208 139.18 37.608C138.86 37.848 138.716 38.2 138.716 38.648C138.716 39.512 139.276 39.976 140.188 39.976ZM139.068 34.872H137.692C137.724 33.384 138.86 32.36 140.876 32.36C142.972 32.36 143.996 33.24 143.996 35.496V38.936C143.996 39.608 144.14 39.88 144.764 39.896V41.064H144.588C143.244 41.064 142.796 40.584 142.652 39.576H142.62C142.172 40.568 141.164 41.144 139.916 41.144C138.236 41.144 137.244 40.232 137.244 38.728C137.244 37.8 137.644 37.032 138.508 36.6C139.388 36.136 140.7 35.976 142.588 35.912V35.544C142.588 34.024 142.012 33.432 140.828 33.432C139.58 33.432 139.116 34.152 139.068 34.872ZM146.856 41V28.392H148.296V41H146.856ZM162.02 35.112H160.612C160.516 34.248 159.908 33.464 158.692 33.464C157.172 33.464 156.372 34.792 156.372 36.76C156.372 38.712 156.964 40.072 158.66 40.072C160.26 40.072 160.676 38.888 160.724 38.248H162.068C161.86 40.2 160.468 41.192 158.644 41.192C156.212 41.192 154.9 39.496 154.9 36.824C154.9 34.248 156.308 32.36 158.676 32.36C160.356 32.36 161.876 33.128 162.02 35.112ZM169.512 41V35.784C169.512 35.176 169.512 34.52 169.208 34.12C168.92 33.72 168.44 33.56 167.88 33.56C166.312 33.56 165.592 34.568 165.592 35.944V41H164.152V28.392H165.592V33.96H165.624C165.992 33.144 166.888 32.36 168.264 32.36C169.88 32.36 170.952 33.128 170.952 35.128V41H169.512ZM176.063 39.976C177.135 39.976 178.463 39.256 178.463 37.176V36.984C176.639 37.064 175.599 37.208 175.055 37.608C174.735 37.848 174.591 38.2 174.591 38.648C174.591 39.512 175.151 39.976 176.063 39.976ZM174.943 34.872H173.567C173.599 33.384 174.735 32.36 176.751 32.36C178.847 32.36 179.871 33.24 179.871 35.496V38.936C179.871 39.608 180.015 39.88 180.639 39.896V41.064H180.463C179.119 41.064 178.671 40.584 178.527 39.576H178.495C178.047 40.568 177.039 41.144 175.791 41.144C174.111 41.144 173.119 40.232 173.119 38.728C173.119 37.8 173.519 37.032 174.383 36.6C175.263 36.136 176.575 35.976 178.463 35.912V35.544C178.463 34.024 177.887 33.432 176.703 33.432C175.455 33.432 174.991 34.152 174.943 34.872ZM182.731 41V32.568H184.091V34.152H184.123C184.507 33.272 185.563 32.408 186.795 32.408H186.939V33.912H186.667C185.163 33.912 184.171 34.776 184.171 36.408V41H182.731ZM191 39.976C192.072 39.976 193.4 39.256 193.4 37.176V36.984C191.576 37.064 190.536 37.208 189.992 37.608C189.672 37.848 189.528 38.2 189.528 38.648C189.528 39.512 190.088 39.976 191 39.976ZM189.88 34.872H188.504C188.536 33.384 189.672 32.36 191.688 32.36C193.784 32.36 194.808 33.24 194.808 35.496V38.936C194.808 39.608 194.952 39.88 195.576 39.896V41.064H195.4C194.056 41.064 193.608 40.584 193.464 39.576H193.432C192.984 40.568 191.976 41.144 190.728 41.144C189.048 41.144 188.056 40.232 188.056 38.728C188.056 37.8 188.456 37.032 189.32 36.6C190.2 36.136 191.512 35.976 193.4 35.912V35.544C193.4 34.024 192.824 33.432 191.64 33.432C190.392 33.432 189.928 34.152 189.88 34.872ZM204.114 35.112H202.706C202.61 34.248 202.002 33.464 200.786 33.464C199.266 33.464 198.466 34.792 198.466 36.76C198.466 38.712 199.058 40.072 200.754 40.072C202.354 40.072 202.77 38.888 202.818 38.248H204.162C203.954 40.2 202.562 41.192 200.738 41.192C198.306 41.192 196.994 39.496 196.994 36.824C196.994 34.248 198.402 32.36 200.77 32.36C202.45 32.36 203.97 33.128 204.114 35.112ZM206.788 30.12H208.1V32.568H210.18V33.672H208.1V38.648C208.1 39.544 208.468 39.896 209.38 39.896C209.812 39.896 210.308 39.816 210.308 39.816V41.032C210.308 41.032 209.716 41.128 208.98 41.128C207.332 41.128 206.676 40.328 206.676 38.888V33.672H205.14V32.616H205.396C206.532 32.616 206.788 32.344 206.788 30.728V30.12ZM217.349 36.04V35.944C217.317 34.536 216.757 33.448 215.285 33.448C213.941 33.448 213.205 34.504 213.029 36.04H217.349ZM218.709 38.792C218.405 40.248 217.157 41.208 215.349 41.208C212.773 41.208 211.541 39.336 211.541 36.824C211.541 34.328 212.885 32.36 215.301 32.36C217.829 32.36 218.821 34.312 218.821 36.44V37.176H213.013C213.109 38.92 213.813 40.104 215.397 40.104C216.805 40.104 217.173 39.288 217.317 38.792H218.709ZM221.012 41V32.568H222.372V34.152H222.404C222.788 33.272 223.844 32.408 225.076 32.408H225.22V33.912H224.948C223.444 33.912 222.452 34.776 222.452 36.408V41H221.012ZM227.23 30.648V29.096H228.75V30.648H227.23ZM227.262 41V32.568H228.718V41H227.262ZM237.267 34.68H235.891C235.811 33.928 235.203 33.448 234.211 33.448C233.219 33.448 232.563 34.024 232.563 34.808C232.563 35.496 232.979 35.816 233.827 35.96L235.123 36.152C236.883 36.424 237.523 37.144 237.523 38.6C237.523 40.296 236.147 41.208 234.227 41.208C232.483 41.208 231.043 40.424 230.931 38.616H232.339C232.403 39.272 232.771 40.104 234.259 40.104C235.411 40.104 236.131 39.56 236.131 38.68C236.131 38.008 235.955 37.64 234.803 37.448L233.507 37.256C232.003 37.016 231.203 36.392 231.203 34.92C231.203 33.432 232.339 32.36 234.259 32.36C236.083 32.36 237.123 33.208 237.267 34.68ZM240.241 30.12H241.553V32.568H243.633V33.672H241.553V38.648C241.553 39.544 241.921 39.896 242.833 39.896C243.265 39.896 243.761 39.816 243.761 39.816V41.032C243.761 41.032 243.169 41.128 242.433 41.128C240.785 41.128 240.129 40.328 240.129 38.888V33.672H238.593V32.616H238.849C239.985 32.616 240.241 32.344 240.241 30.728V30.12ZM245.714 30.648V29.096H247.234V30.648H245.714ZM245.746 41V32.568H247.202V41H245.746ZM256.583 35.112H255.175C255.079 34.248 254.471 33.464 253.255 33.464C251.735 33.464 250.935 34.792 250.935 36.76C250.935 38.712 251.527 40.072 253.223 40.072C254.823 40.072 255.239 38.888 255.287 38.248H256.631C256.423 40.2 255.031 41.192 253.207 41.192C250.775 41.192 249.463 39.496 249.463 36.824C249.463 34.248 250.871 32.36 253.239 32.36C254.919 32.36 256.439 33.128 256.583 35.112ZM264.329 34.68H262.953C262.873 33.928 262.265 33.448 261.273 33.448C260.281 33.448 259.625 34.024 259.625 34.808C259.625 35.496 260.041 35.816 260.889 35.96L262.185 36.152C263.945 36.424 264.585 37.144 264.585 38.6C264.585 40.296 263.209 41.208 261.289 41.208C259.545 41.208 258.105 40.424 257.993 38.616H259.401C259.465 39.272 259.833 40.104 261.321 40.104C262.473 40.104 263.193 39.56 263.193 38.68C263.193 38.008 263.017 37.64 261.865 37.448L260.569 37.256C259.065 37.016 258.265 36.392 258.265 34.92C258.265 33.432 259.401 32.36 261.321 32.36C263.145 32.36 264.185 33.208 264.329 34.68ZM266.342 41V39.048H268.294V41H266.342Z" fill="#BBB5AE"/>
<path d="M1.5 68C1.5 63.8579 4.85786 60.5 9 60.5H281C285.142 60.5 288.5 63.8579 288.5 68V84C288.5 88.1421 285.142 91.5 281 91.5H9C4.85787 91.5 1.5 88.1421 1.5 84V68Z" stroke="white"/>
<path fill-rule="evenodd" clip-rule="evenodd" d="M13.5833 70.1667V75.5833H19V70.1667H13.5833Z" fill="white"/>
<path fill-rule="evenodd" clip-rule="evenodd" d="M20.25 72.25V79.75H25.25V72.25H20.25Z" fill="white"/>
<path fill-rule="evenodd" clip-rule="evenodd" d="M12.75 81.4167V76.8333H19V81.4167H12.75Z" fill="white"/>
<path fill-rule="evenodd" clip-rule="evenodd" d="M48.3768 73.4476V79.7169L46.3446 82.7157L44.3125 79.7169V71.1224C44.3125 70.6313 44.5189 70.1668 44.8772 69.8293C45.2342 69.4931 45.7092 69.3126 46.1956 69.3126H46.4902C46.9871 69.3076 47.4632 69.4957 47.8142 69.8314C48.1712 70.1687 48.3768 70.6323 48.3768 71.1224V72.1976L51.1164 72.1976V76.016H49.8664V73.4476L48.3768 73.4476ZM46.5013 70.5625C46.677 70.5604 46.8383 70.6273 46.9508 70.7353L46.955 70.7393C47.0701 70.8477 47.1268 70.986 47.1268 71.1224V72.1976L45.5625 72.1976V71.1224C45.5625 70.986 45.6192 70.8477 45.7342 70.7393C45.8506 70.6297 46.0156 70.5626 46.1956 70.5626H46.4975L46.5013 70.5625ZM45.5625 73.4476V79.3333L46.3446 80.4875L47.1268 79.3333V73.4476L45.5625 73.4476Z" fill="white"/>
<path fill-rule="evenodd" clip-rule="evenodd" d="M53.5776 78.9591C53.3999 79.0202 53.1371 79.1648 52.7941 79.4156C52.3983 79.7049 51.9633 80.0843 51.528 80.4896C51.1535 80.8384 50.7894 81.1965 50.4576 81.5227C50.4046 81.5748 50.3525 81.6261 50.3013 81.6764C49.942 82.0292 49.6045 82.3573 49.3658 82.5458L48.5913 81.5646C48.7647 81.4278 49.0471 81.156 49.4255 80.7845C49.4756 80.7353 49.527 80.6847 49.5796 80.633C49.9107 80.3074 50.2881 79.9363 50.6761 79.5749C51.1247 79.1571 51.6016 78.739 52.0563 78.4065C52.4909 78.0887 52.9818 77.7907 53.4477 77.7029L53.4575 77.701L53.4675 77.6995C53.7516 77.6553 54.0707 77.6781 54.346 77.8682C54.6219 78.0586 54.7423 78.3401 54.7916 78.5773C54.8826 79.0154 54.7817 79.5456 54.6733 79.9708C54.5928 80.2865 54.4892 80.6105 54.3927 80.8989C54.6312 80.7552 54.8682 80.6003 55.0599 80.4722C55.141 80.418 55.2123 80.3698 55.2727 80.3289C55.2922 80.3157 55.3106 80.3033 55.3278 80.2916C55.362 80.2686 55.3934 80.2475 55.4184 80.231L55.4197 80.2302C55.4292 80.2239 55.4845 80.1869 55.5378 80.162C55.6993 80.0867 55.9155 80.0165 56.1551 80.052C56.4283 80.0926 56.6163 80.2513 56.7296 80.4146C56.8277 80.556 56.8771 80.71 56.9049 80.8057C56.921 80.8608 56.9422 80.9449 56.9586 81.0098C56.9666 81.0419 56.9735 81.0692 56.9781 81.0862C57.0143 81.2219 57.0411 81.2728 57.0511 81.2889C57.0742 81.2944 57.1256 81.2997 57.2228 81.286L58.3076 80.9877L58.639 82.1929L57.4882 82.5094L57.4561 82.5147C56.9767 82.5941 56.5411 82.5177 56.2133 82.219C55.9596 81.9877 55.8497 81.6868 55.7919 81.4864C55.7796 81.4947 55.7671 81.503 55.7544 81.5115C55.5329 81.6595 55.2392 81.8514 54.9429 82.0262C54.6572 82.1947 54.3293 82.3715 54.0496 82.4658C53.9246 82.5079 53.7188 82.5665 53.5031 82.537C53.3822 82.5205 53.2186 82.4708 53.0774 82.3357C52.9306 82.1954 52.8692 82.0218 52.8531 81.8734C52.8396 81.7495 52.8595 81.6349 52.871 81.5756C52.8853 81.5023 52.9056 81.4253 52.9267 81.3521C52.9691 81.2059 53.0284 81.0296 53.0896 80.8497C53.0971 80.8275 53.1048 80.8051 53.1124 80.7826C53.2334 80.4272 53.3671 80.0341 53.4621 79.6619C53.5425 79.3463 53.5765 79.1115 53.5776 78.9591ZM57.0358 81.2828C57.0358 81.2828 57.0398 81.2835 57.0457 81.2874C57.0383 81.2852 57.0358 81.2828 57.0358 81.2828Z" fill="white"/>
<path fill-rule="evenodd" clip-rule="evenodd" d="M87.5833 71H78V80.5833H87.5833V71ZM76.75 69.75V81.8333H88.8333V69.75H76.75Z" fill="white"/>
<path d="M79.6667 75.5833H80.9167V78.5H79.6667V75.5833Z" fill="white"/>
<path d="M82.1667 74.3333H83.4167V78.5H82.1667V74.3333Z" fill="white"/>
<path d="M84.6667 73.0833H85.9167V78.5H84.6667V73.0833Z" fill="white"/>
<path d="M120.625 73.7083L115.208 78.9167L109.792 73.7083" stroke="white" stroke-width="1.5" stroke-miterlimit="10"/>
<path d="M138.003 84.003H151.997C152.551 84.003 153 83.5541 153 83V71.0089C153 70.4548 152.551 70.006 151.997 70.006H146.649C146.019 70.006 145.435 69.6675 145.124 69.1208L145.064 69.013C144.708 68.3861 144.041 68 143.321 68H138.003C137.449 68 137 68.4488 137 69.003V83C137 83.5541 137.449 84.003 138.003 84.003Z" fill="#BBB5AE"/>
<path d="M153 73V83C153 83.5525 152.551 84 151.997 84H138.003C137.449 84 137 83.5525 137 83V73C137 72.4475 137.449 72 138.003 72H151.997C152.551 72 153 72.4475 153 73Z" fill="white"/>
<path d="M172.5 77.4583V76.2083H174.167V74.5417H175.417V76.2083H177.083V77.4583H175.417V79.125H174.167V77.4583H172.5Z" fill="white"/>
<path d="M179.792 81.8333H169.792C169.294 81.8333 168.817 81.6358 168.466 81.2842C168.114 80.9325 167.917 80.4556 167.917 79.9583V70.1667H171.727C172.076 70.1655 172.418 70.2619 172.714 70.4451C173.01 70.6282 173.25 70.8908 173.404 71.2029L173.719 71.8333H181.667V79.9583C181.667 80.2046 181.618 80.4484 181.524 80.6759C181.43 80.9034 181.291 81.1101 181.117 81.2842C180.943 81.4583 180.737 81.5964 180.509 81.6906C180.282 81.7848 180.038 81.8333 179.792 81.8333ZM169.167 71.4167V79.9583C169.167 80.1241 169.232 80.2831 169.35 80.4003C169.467 80.5175 169.626 80.5833 169.792 80.5833H179.792C179.957 80.5833 180.116 80.5175 180.233 80.4003C180.351 80.2831 180.417 80.1241 180.417 79.9583V73.0833H172.947L172.287 71.7621C172.235 71.658 172.155 71.5704 172.056 71.5093C171.958 71.4482 171.844 71.4161 171.727 71.4167H169.167Z" fill="white"/>
<path d="M212.859 80.9746L209.518 77.6337C210.084 76.781 210.369 75.7727 210.333 74.75C210.333 71.88 208.62 70.1667 205.75 70.1667C202.88 70.1667 201.167 71.88 201.167 74.75C201.167 77.62 202.88 79.3333 205.75 79.3333C206.773 79.3689 207.781 79.0838 208.634 78.5179L211.975 81.8587L212.859 80.9746ZM202.417 74.75C202.417 72.5696 203.569 71.4167 205.75 71.4167C207.93 71.4167 209.083 72.5696 209.083 74.75C209.083 76.9304 207.93 78.0833 205.75 78.0833C203.569 78.0833 202.417 76.9304 202.417 74.75Z" fill="white"/>
<path d="M238.792 69.75V81.8333M244.833 75.7917H232.75" stroke="white" stroke-width="1.5" stroke-miterlimit="10"/>
<path d="M270.667 72.8696V71.7072L269.823 72.5066L267.282 74.9135L267.11 74.7322L270.792 71.2446L274.473 74.7322L274.301 74.9135L271.761 72.5066L270.917 71.7072V72.8696V78.8334H270.667V72.8696ZM265.25 81.3334V81.0834H276.333V81.3334H265.25Z" fill="white" stroke="white"/>
</svg>
