<svg width="330" height="92" viewBox="0 0 330 92" fill="none" xmlns="http://www.w3.org/2000/svg">
<path d="M18.9033 8.04H17.3833C17.2393 6.84 16.5513 5.768 14.8393 5.768C13.1753 5.768 12.2793 6.712 12.2793 7.88C12.2793 9 12.8873 9.64 14.3273 9.912L16.0553 10.216C18.4392 10.648 19.2713 11.816 19.2713 13.56C19.2713 15.8 17.7513 17.24 14.8233 17.24C11.9913 17.24 10.3753 15.72 10.2473 13.56H11.7993C11.9753 14.872 12.8873 16.04 14.8553 16.04C17.0312 16.04 17.7513 14.984 17.7513 13.688C17.7513 12.632 17.1753 11.896 15.6713 11.64L13.9593 11.336C11.5593 10.888 10.7113 9.608 10.7113 8.008C10.7113 6.024 12.3433 4.584 14.8553 4.584C17.4473 4.584 18.7913 5.96 18.9033 8.04ZM23.271 13.096C23.271 14.76 24.087 16.072 25.687 16.072C27.191 16.072 27.927 14.872 27.927 12.664C27.927 10.872 27.399 9.512 25.671 9.512C24.183 9.512 23.271 10.776 23.271 12.2V13.096ZM21.879 20.008V8.568H23.271V9.976H23.303C23.799 9.08 24.711 8.36 25.991 8.36C27.783 8.36 29.383 9.464 29.383 12.664C29.383 15.736 27.799 17.208 25.895 17.208C24.663 17.208 23.671 16.52 23.351 15.768H23.319V20.008H21.879ZM34.8245 17.208C32.3445 17.208 31.0645 15.416 31.0645 12.776C31.0645 10.168 32.5045 8.36 34.8565 8.36C37.3685 8.36 38.6165 10.168 38.6165 12.776C38.6165 15.416 37.1925 17.208 34.8245 17.208ZM34.8405 9.464C33.3045 9.464 32.5525 10.728 32.5525 12.776C32.5525 14.84 33.2405 16.088 34.8725 16.088C36.4405 16.088 37.1285 14.84 37.1285 12.776C37.1285 10.728 36.4565 9.464 34.8405 9.464ZM41.3586 6.12H42.6706V8.568H44.7506V9.672H42.6706V14.648C42.6706 15.544 43.0386 15.896 43.9506 15.896C44.3826 15.896 44.8786 15.816 44.8786 15.816V17.032C44.8786 17.032 44.2866 17.128 43.5506 17.128C41.9026 17.128 41.2466 16.328 41.2466 14.888V9.672H39.7106V8.616H39.9666C41.1026 8.616 41.3586 8.344 41.3586 6.728V6.12ZM51.0345 6.648V5.096H52.5545V6.648H51.0345ZM51.0665 17V8.568H52.5225V17H51.0665ZM61.9033 11.112H60.4953C60.3993 10.248 59.7913 9.464 58.5753 9.464C57.0553 9.464 56.2553 10.792 56.2553 12.76C56.2553 14.712 56.8473 16.072 58.5433 16.072C60.1433 16.072 60.5593 14.888 60.6073 14.248H61.9513C61.7433 16.2 60.3513 17.192 58.5273 17.192C56.0953 17.192 54.7833 15.496 54.7833 12.824C54.7833 10.248 56.1913 8.36 58.5593 8.36C60.2393 8.36 61.7593 9.128 61.9033 11.112ZM67.1995 17.208C64.7195 17.208 63.4395 15.416 63.4395 12.776C63.4395 10.168 64.8795 8.36 67.2315 8.36C69.7435 8.36 70.9915 10.168 70.9915 12.776C70.9915 15.416 69.5675 17.208 67.1995 17.208ZM67.2155 9.464C65.6795 9.464 64.9275 10.728 64.9275 12.776C64.9275 14.84 65.6155 16.088 67.2475 16.088C68.8155 16.088 69.5035 14.84 69.5035 12.776C69.5035 10.728 68.8315 9.464 67.2155 9.464ZM78.6296 17V11.8C78.6296 11.192 78.6296 10.52 78.3256 10.12C78.0376 9.72 77.5576 9.56 76.9976 9.56C75.4296 9.56 74.7096 10.568 74.7096 11.944V17H73.2696V8.568H74.6296V9.992H74.6616C75.0616 9.128 76.0376 8.36 77.3816 8.36C78.9976 8.36 80.0696 9.128 80.0696 11.128V17H78.6296ZM88.54 10.68H87.164C87.084 9.928 86.476 9.448 85.484 9.448C84.492 9.448 83.836 10.024 83.836 10.808C83.836 11.496 84.252 11.816 85.1 11.96L86.396 12.152C88.156 12.424 88.796 13.144 88.796 14.6C88.796 16.296 87.42 17.208 85.5 17.208C83.756 17.208 82.316 16.424 82.204 14.616H83.612C83.676 15.272 84.044 16.104 85.532 16.104C86.684 16.104 87.404 15.56 87.404 14.68C87.404 14.008 87.228 13.64 86.076 13.448L84.78 13.256C83.276 13.016 82.476 12.392 82.476 10.92C82.476 9.432 83.612 8.36 85.532 8.36C87.356 8.36 88.396 9.208 88.54 10.68ZM97.5863 15.976C98.6583 15.976 99.9863 15.256 99.9863 13.176V12.984C98.1623 13.064 97.1223 13.208 96.5783 13.608C96.2582 13.848 96.1143 14.2 96.1143 14.648C96.1143 15.512 96.6743 15.976 97.5863 15.976ZM96.4663 10.872H95.0903C95.1223 9.384 96.2582 8.36 98.2743 8.36C100.37 8.36 101.394 9.24 101.394 11.496V14.936C101.394 15.608 101.538 15.88 102.162 15.896V17.064H101.986C100.642 17.064 100.194 16.584 100.05 15.576H100.018C99.5703 16.568 98.5623 17.144 97.3143 17.144C95.6343 17.144 94.6423 16.232 94.6423 14.728C94.6423 13.8 95.0423 13.032 95.9062 12.6C96.7863 12.136 98.0983 11.976 99.9863 11.912V11.544C99.9863 10.024 99.4103 9.432 98.2263 9.432C96.9783 9.432 96.5143 10.152 96.4663 10.872ZM104.254 17V8.568H105.614V10.152H105.646C106.03 9.272 107.086 8.408 108.318 8.408H108.462V9.912H108.19C106.686 9.912 105.694 10.776 105.694 12.408V17H104.254ZM115.404 12.04V11.944C115.372 10.536 114.812 9.448 113.34 9.448C111.996 9.448 111.26 10.504 111.084 12.04H115.404ZM116.764 14.792C116.46 16.248 115.212 17.208 113.404 17.208C110.828 17.208 109.596 15.336 109.596 12.824C109.596 10.328 110.94 8.36 113.356 8.36C115.884 8.36 116.876 10.312 116.876 12.44V13.176H111.068C111.164 14.92 111.868 16.104 113.452 16.104C114.86 16.104 115.228 15.288 115.372 14.792H116.764ZM124.896 8.568V13.752C124.896 14.36 124.896 15.064 125.2 15.464C125.488 15.848 125.936 16.024 126.496 16.024C128.064 16.024 128.8 14.984 128.8 13.128V8.568H130.24V17H128.864V15.56H128.832C128.448 16.424 127.52 17.208 126.176 17.208C124.56 17.208 123.472 16.424 123.472 14.44V8.568H124.896ZM138.774 10.68H137.398C137.318 9.928 136.71 9.448 135.718 9.448C134.726 9.448 134.07 10.024 134.07 10.808C134.07 11.496 134.486 11.816 135.334 11.96L136.63 12.152C138.39 12.424 139.03 13.144 139.03 14.6C139.03 16.296 137.654 17.208 135.734 17.208C133.99 17.208 132.55 16.424 132.438 14.616H133.846C133.91 15.272 134.278 16.104 135.766 16.104C136.918 16.104 137.638 15.56 137.638 14.68C137.638 14.008 137.462 13.64 136.31 13.448L135.014 13.256C133.51 13.016 132.71 12.392 132.71 10.92C132.71 9.432 133.846 8.36 135.766 8.36C137.59 8.36 138.63 9.208 138.774 10.68ZM146.419 12.04V11.944C146.387 10.536 145.827 9.448 144.355 9.448C143.011 9.448 142.275 10.504 142.099 12.04H146.419ZM147.779 14.792C147.475 16.248 146.227 17.208 144.419 17.208C141.843 17.208 140.611 15.336 140.611 12.824C140.611 10.328 141.955 8.36 144.371 8.36C146.899 8.36 147.891 10.312 147.891 12.44V13.176H142.083C142.179 14.92 142.883 16.104 144.467 16.104C145.875 16.104 146.243 15.288 146.387 14.792H147.779ZM155.598 13.352V12.456C155.598 10.664 154.654 9.512 153.31 9.512C151.694 9.512 150.958 10.792 150.958 12.776C150.958 14.68 151.518 16.072 153.198 16.072C154.686 16.072 155.598 14.888 155.598 13.352ZM157.006 4.392V17H155.63V15.608H155.582C155.134 16.44 154.222 17.208 152.926 17.208C151.134 17.208 149.486 16.088 149.486 12.84C149.486 9.944 150.99 8.36 153.118 8.36C154.382 8.36 155.198 9.064 155.534 9.848H155.566V4.392H157.006ZM164.843 6.12H166.155V8.568H168.235V9.672H166.155V14.648C166.155 15.544 166.523 15.896 167.435 15.896C167.867 15.896 168.363 15.816 168.363 15.816V17.032C168.363 17.032 167.771 17.128 167.035 17.128C165.387 17.128 164.731 16.328 164.731 14.888V9.672H163.195V8.616H163.451C164.587 8.616 164.843 8.344 164.843 6.728V6.12ZM173.356 17.208C170.876 17.208 169.596 15.416 169.596 12.776C169.596 10.168 171.036 8.36 173.388 8.36C175.9 8.36 177.148 10.168 177.148 12.776C177.148 15.416 175.724 17.208 173.356 17.208ZM173.372 9.464C171.836 9.464 171.084 10.728 171.084 12.776C171.084 14.84 171.772 16.088 173.404 16.088C174.972 16.088 175.66 14.84 175.66 12.776C175.66 10.728 174.988 9.464 173.372 9.464ZM190.153 11.112H188.745C188.649 10.248 188.041 9.464 186.825 9.464C185.305 9.464 184.505 10.792 184.505 12.76C184.505 14.712 185.097 16.072 186.793 16.072C188.393 16.072 188.809 14.888 188.857 14.248H190.201C189.993 16.2 188.601 17.192 186.777 17.192C184.345 17.192 183.033 15.496 183.033 12.824C183.033 10.248 184.441 8.36 186.809 8.36C188.489 8.36 190.009 9.128 190.153 11.112ZM195.45 17.208C192.97 17.208 191.69 15.416 191.69 12.776C191.69 10.168 193.13 8.36 195.482 8.36C197.994 8.36 199.242 10.168 199.242 12.776C199.242 15.416 197.818 17.208 195.45 17.208ZM195.466 9.464C193.93 9.464 193.178 10.728 193.178 12.776C193.178 14.84 193.866 16.088 195.498 16.088C197.066 16.088 197.754 14.84 197.754 12.776C197.754 10.728 197.082 9.464 195.466 9.464ZM206.88 17V11.8C206.88 11.192 206.88 10.52 206.576 10.12C206.288 9.72 205.808 9.56 205.248 9.56C203.68 9.56 202.96 10.568 202.96 11.944V17H201.52V8.568H202.88V9.992H202.912C203.312 9.128 204.288 8.36 205.632 8.36C207.248 8.36 208.32 9.128 208.32 11.128V17H206.88ZM213 17L210.04 8.568H211.512L213.336 13.992C213.576 14.68 213.752 15.32 213.752 15.32H213.784C213.784 15.32 213.96 14.68 214.2 13.992L216.072 8.568H217.448L214.52 17H213ZM224.31 12.04V11.944C224.278 10.536 223.718 9.448 222.246 9.448C220.902 9.448 220.166 10.504 219.99 12.04H224.31ZM225.67 14.792C225.366 16.248 224.118 17.208 222.31 17.208C219.734 17.208 218.502 15.336 218.502 12.824C218.502 10.328 219.846 8.36 222.262 8.36C224.79 8.36 225.782 10.312 225.782 12.44V13.176H219.974C220.07 14.92 220.774 16.104 222.358 16.104C223.766 16.104 224.134 15.288 224.278 14.792H225.67ZM230.021 17L227.077 8.568H228.517L230.277 13.848C230.549 14.648 230.693 15.16 230.693 15.16H230.741C230.741 15.16 230.885 14.648 231.157 13.832L232.885 8.568H234.325L231.253 17.528C230.581 19.464 230.021 20.184 228.197 20.184C227.877 20.184 227.557 20.136 227.333 20.088V18.904C227.605 18.968 227.925 18.984 228.069 18.984C229.141 18.984 229.493 18.584 229.861 17.448L230.021 17ZM241.109 6.12H242.421V8.568H244.501V9.672H242.421V14.648C242.421 15.544 242.789 15.896 243.701 15.896C244.133 15.896 244.629 15.816 244.629 15.816V17.032C244.629 17.032 244.037 17.128 243.301 17.128C241.653 17.128 240.997 16.328 240.997 14.888V9.672H239.461V8.616H239.717C240.853 8.616 241.109 8.344 241.109 6.728V6.12ZM251.817 17V11.784C251.817 11.176 251.817 10.52 251.513 10.12C251.225 9.72 250.745 9.56 250.185 9.56C248.617 9.56 247.897 10.568 247.897 11.944V17H246.457V4.392H247.897V9.96H247.929C248.297 9.144 249.193 8.36 250.569 8.36C252.185 8.36 253.257 9.128 253.257 11.128V17H251.817ZM261.248 12.04V11.944C261.216 10.536 260.656 9.448 259.184 9.448C257.84 9.448 257.104 10.504 256.928 12.04H261.248ZM262.608 14.792C262.304 16.248 261.056 17.208 259.248 17.208C256.672 17.208 255.44 15.336 255.44 12.824C255.44 10.328 256.784 8.36 259.2 8.36C261.728 8.36 262.72 10.312 262.72 12.44V13.176H256.912C257.008 14.92 257.712 16.104 259.296 16.104C260.704 16.104 261.072 15.288 261.216 14.792H262.608ZM269.348 17V4.392H270.788V9.96H270.804C271.268 9.048 272.196 8.36 273.46 8.36C275.252 8.36 276.852 9.464 276.852 12.664C276.852 15.736 275.284 17.208 273.38 17.208C272.052 17.208 271.172 16.472 270.74 15.656H270.708V17H269.348ZM273.156 16.072C274.66 16.072 275.396 14.872 275.396 12.664C275.396 10.872 274.868 9.512 273.14 9.512C271.62 9.512 270.74 10.776 270.74 12.2V13.096C270.74 14.76 271.556 16.072 273.156 16.072ZM284.341 12.04V11.944C284.309 10.536 283.749 9.448 282.277 9.448C280.933 9.448 280.197 10.504 280.021 12.04H284.341ZM285.701 14.792C285.397 16.248 284.149 17.208 282.341 17.208C279.765 17.208 278.533 15.336 278.533 12.824C278.533 10.328 279.877 8.36 282.293 8.36C284.821 8.36 285.813 10.312 285.813 12.44V13.176H280.005C280.101 14.92 280.805 16.104 282.389 16.104C283.797 16.104 284.165 15.288 284.309 14.792H285.701ZM293.364 17V11.8C293.364 11.192 293.364 10.52 293.06 10.12C292.772 9.72 292.292 9.56 291.732 9.56C290.164 9.56 289.444 10.568 289.444 11.944V17H288.004V8.568H289.364V9.992H289.396C289.796 9.128 290.772 8.36 292.116 8.36C293.732 8.36 294.804 9.128 294.804 11.128V17H293.364ZM302.794 12.04V11.944C302.762 10.536 302.202 9.448 300.73 9.448C299.386 9.448 298.65 10.504 298.474 12.04H302.794ZM304.154 14.792C303.85 16.248 302.602 17.208 300.794 17.208C298.218 17.208 296.986 15.336 296.986 12.824C296.986 10.328 298.33 8.36 300.746 8.36C303.274 8.36 304.266 10.312 304.266 12.44V13.176H298.458C298.554 14.92 299.258 16.104 300.842 16.104C302.25 16.104 302.618 15.288 302.762 14.792H304.154ZM312.167 6.648V5.096H313.687V6.648H312.167ZM312.199 17V8.568H313.655V17H312.199ZM308.247 9.672V17H306.807V9.672H305.335V8.568H306.807V6.68C306.807 4.952 307.799 4.344 309.367 4.344C309.687 4.344 310.007 4.376 310.263 4.424V5.608C310.103 5.576 309.847 5.544 309.479 5.544C308.647 5.544 308.247 5.848 308.247 6.856V8.568H310.199V9.672H308.247ZM317.124 6.12H318.436V8.568H320.516V9.672H318.436V14.648C318.436 15.544 318.804 15.896 319.716 15.896C320.148 15.896 320.644 15.816 320.644 15.816V17.032C320.644 17.032 320.052 17.128 319.316 17.128C317.668 17.128 317.012 16.328 317.012 14.888V9.672H315.476V8.616H315.732C316.868 8.616 317.124 8.344 317.124 6.728V6.12ZM41.93 39.976C43.002 39.976 44.33 39.256 44.33 37.176V36.984C42.506 37.064 41.466 37.208 40.922 37.608C40.602 37.848 40.458 38.2 40.458 38.648C40.458 39.512 41.018 39.976 41.93 39.976ZM40.81 34.872H39.434C39.466 33.384 40.602 32.36 42.618 32.36C44.714 32.36 45.738 33.24 45.738 35.496V38.936C45.738 39.608 45.882 39.88 46.506 39.896V41.064H46.33C44.986 41.064 44.538 40.584 44.394 39.576H44.362C43.914 40.568 42.906 41.144 41.658 41.144C39.978 41.144 38.986 40.232 38.986 38.728C38.986 37.8 39.386 37.032 40.25 36.6C41.13 36.136 42.442 35.976 44.33 35.912V35.544C44.33 34.024 43.754 33.432 42.57 33.432C41.322 33.432 40.858 34.152 40.81 34.872ZM53.9578 41V35.8C53.9578 35.192 53.9578 34.52 53.6538 34.12C53.3658 33.72 52.8858 33.56 52.3258 33.56C50.7578 33.56 50.0378 34.568 50.0378 35.944V41H48.5978V32.568H49.9578V33.992H49.9898C50.3898 33.128 51.3658 32.36 52.7098 32.36C54.3258 32.36 55.3978 33.128 55.3978 35.128V41H53.9578ZM63.6921 37.352V36.456C63.6921 34.664 62.7481 33.512 61.4041 33.512C59.7881 33.512 59.0521 34.792 59.0521 36.776C59.0521 38.68 59.6121 40.072 61.2921 40.072C62.7801 40.072 63.6921 38.888 63.6921 37.352ZM65.1001 28.392V41H63.7241V39.608H63.6761C63.2281 40.44 62.3161 41.208 61.0201 41.208C59.2281 41.208 57.5801 40.088 57.5801 36.84C57.5801 33.944 59.0841 32.36 61.2121 32.36C62.4761 32.36 63.2921 33.064 63.6281 33.848H63.6601V28.392H65.1001ZM73.8648 32.568V37.752C73.8648 38.36 73.8648 39.064 74.1688 39.464C74.4568 39.848 74.9048 40.024 75.4648 40.024C77.0328 40.024 77.7688 38.984 77.7688 37.128V32.568H79.2088V41H77.8328V39.56H77.8008C77.4168 40.424 76.4888 41.208 75.1448 41.208C73.5288 41.208 72.4408 40.424 72.4408 38.44V32.568H73.8648ZM82.6711 30.12H83.9831V32.568H86.0631V33.672H83.9831V38.648C83.9831 39.544 84.3511 39.896 85.2631 39.896C85.6951 39.896 86.1911 39.816 86.1911 39.816V41.032C86.1911 41.032 85.5991 41.128 84.8631 41.128C83.2151 41.128 82.5591 40.328 82.5591 38.888V33.672H81.0231V32.616H81.2791C82.4151 32.616 82.6711 32.344 82.6711 30.728V30.12ZM88.1439 30.648V29.096H89.6639V30.648H88.1439ZM88.1759 41V32.568H89.6319V41H88.1759ZM92.6446 41V28.392H94.0846V41H92.6446ZM97.0501 30.648V29.096H98.5701V30.648H97.0501ZM97.0821 41V32.568H98.5381V41H97.0821ZM102.015 30.12H103.327V32.568H105.407V33.672H103.327V38.648C103.327 39.544 103.695 39.896 104.607 39.896C105.039 39.896 105.535 39.816 105.535 39.816V41.032C105.535 41.032 104.943 41.128 104.207 41.128C102.559 41.128 101.903 40.328 101.903 38.888V33.672H100.367V32.616H100.623C101.759 32.616 102.015 32.344 102.015 30.728V30.12ZM109.646 41L106.702 32.568H108.142L109.902 37.848C110.174 38.648 110.318 39.16 110.318 39.16H110.366C110.366 39.16 110.51 38.648 110.782 37.832L112.51 32.568H113.95L110.878 41.528C110.206 43.464 109.646 44.184 107.822 44.184C107.502 44.184 107.182 44.136 106.958 44.088V42.904C107.23 42.968 107.55 42.984 107.694 42.984C108.766 42.984 109.118 42.584 109.486 41.448L109.646 41ZM123.278 41.208C120.798 41.208 119.518 39.416 119.518 36.776C119.518 34.168 120.958 32.36 123.31 32.36C125.822 32.36 127.07 34.168 127.07 36.776C127.07 39.416 125.646 41.208 123.278 41.208ZM123.294 33.464C121.758 33.464 121.006 34.728 121.006 36.776C121.006 38.84 121.694 40.088 123.326 40.088C124.894 40.088 125.582 38.84 125.582 36.776C125.582 34.728 124.91 33.464 123.294 33.464ZM131.124 33.672V41H129.684V33.672H128.148V32.568H129.684V30.68C129.684 28.952 130.676 28.344 132.244 28.344C132.564 28.344 132.884 28.376 133.14 28.424V29.608C132.98 29.576 132.724 29.544 132.356 29.544C131.524 29.544 131.124 29.848 131.124 30.856V32.568H133.14V33.672H131.124ZM141.618 39.976C142.69 39.976 144.018 39.256 144.018 37.176V36.984C142.194 37.064 141.154 37.208 140.61 37.608C140.289 37.848 140.146 38.2 140.146 38.648C140.146 39.512 140.706 39.976 141.618 39.976ZM140.498 34.872H139.122C139.154 33.384 140.289 32.36 142.306 32.36C144.402 32.36 145.426 33.24 145.426 35.496V38.936C145.426 39.608 145.57 39.88 146.194 39.896V41.064H146.017C144.674 41.064 144.226 40.584 144.082 39.576H144.05C143.602 40.568 142.594 41.144 141.346 41.144C139.666 41.144 138.674 40.232 138.674 38.728C138.674 37.8 139.074 37.032 139.938 36.6C140.818 36.136 142.13 35.976 144.018 35.912V35.544C144.018 34.024 143.442 33.432 142.258 33.432C141.01 33.432 140.546 34.152 140.498 34.872ZM154.037 37.096C154.037 38.76 154.853 40.072 156.453 40.072C157.957 40.072 158.693 38.872 158.693 36.664C158.693 34.872 158.165 33.512 156.437 33.512C154.949 33.512 154.037 34.776 154.037 36.2V37.096ZM152.645 44.008V32.568H154.037V33.976H154.069C154.565 33.08 155.477 32.36 156.757 32.36C158.549 32.36 160.149 33.464 160.149 36.664C160.149 39.736 158.565 41.208 156.661 41.208C155.429 41.208 154.437 40.52 154.117 39.768H154.085V44.008H152.645ZM162.426 41V32.568H163.786V34.152H163.818C164.202 33.272 165.258 32.408 166.49 32.408H166.634V33.912H166.362C164.858 33.912 163.866 34.776 163.866 36.408V41H162.426ZM171.528 41.208C169.048 41.208 167.768 39.416 167.768 36.776C167.768 34.168 169.208 32.36 171.56 32.36C174.072 32.36 175.32 34.168 175.32 36.776C175.32 39.416 173.896 41.208 171.528 41.208ZM171.544 33.464C170.008 33.464 169.256 34.728 169.256 36.776C169.256 38.84 169.944 40.088 171.576 40.088C173.144 40.088 173.832 38.84 173.832 36.776C173.832 34.728 173.16 33.464 171.544 33.464ZM183.114 37.352V36.456C183.114 34.664 182.17 33.512 180.826 33.512C179.21 33.512 178.474 34.792 178.474 36.776C178.474 38.68 179.034 40.072 180.714 40.072C182.202 40.072 183.114 38.888 183.114 37.352ZM184.522 28.392V41H183.146V39.608H183.098C182.65 40.44 181.738 41.208 180.442 41.208C178.65 41.208 177.002 40.088 177.002 36.84C177.002 33.944 178.506 32.36 180.634 32.36C181.898 32.36 182.714 33.064 183.05 33.848H183.082V28.392H184.522ZM188.927 32.568V37.752C188.927 38.36 188.927 39.064 189.231 39.464C189.519 39.848 189.967 40.024 190.527 40.024C192.095 40.024 192.831 38.984 192.831 37.128V32.568H194.271V41H192.895V39.56H192.863C192.479 40.424 191.551 41.208 190.207 41.208C188.591 41.208 187.503 40.424 187.503 38.44V32.568H188.927ZM203.638 35.112H202.23C202.134 34.248 201.526 33.464 200.31 33.464C198.79 33.464 197.99 34.792 197.99 36.76C197.99 38.712 198.582 40.072 200.278 40.072C201.878 40.072 202.294 38.888 202.342 38.248H203.686C203.478 40.2 202.086 41.192 200.262 41.192C197.83 41.192 196.518 39.496 196.518 36.824C196.518 34.248 197.926 32.36 200.294 32.36C201.974 32.36 203.494 33.128 203.638 35.112ZM206.312 30.12H207.624V32.568H209.704V33.672H207.624V38.648C207.624 39.544 207.992 39.896 208.904 39.896C209.336 39.896 209.832 39.816 209.832 39.816V41.032C209.832 41.032 209.24 41.128 208.504 41.128C206.856 41.128 206.2 40.328 206.2 38.888V33.672H204.664V32.616H204.92C206.056 32.616 206.312 32.344 206.312 30.728V30.12ZM219.028 41.208C216.548 41.208 215.268 39.416 215.268 36.776C215.268 34.168 216.708 32.36 219.06 32.36C221.572 32.36 222.82 34.168 222.82 36.776C222.82 39.416 221.396 41.208 219.028 41.208ZM219.044 33.464C217.508 33.464 216.756 34.728 216.756 36.776C216.756 38.84 217.444 40.088 219.076 40.088C220.644 40.088 221.332 38.84 221.332 36.776C221.332 34.728 220.66 33.464 219.044 33.464ZM225.098 41V32.568H226.458V34.152H226.49C226.874 33.272 227.93 32.408 229.162 32.408H229.306V33.912H229.034C227.53 33.912 226.538 34.776 226.538 36.408V41H225.098ZM237.483 33.672V41H236.043V33.672H234.507V32.568H236.043V30.68C236.043 28.952 237.035 28.344 238.603 28.344C238.923 28.344 239.243 28.376 239.499 28.424V29.608C239.339 29.576 239.083 29.544 238.715 29.544C237.883 29.544 237.483 29.848 237.483 30.856V32.568H239.499V33.672H237.483ZM246.341 36.04V35.944C246.309 34.536 245.749 33.448 244.277 33.448C242.933 33.448 242.197 34.504 242.021 36.04H246.341ZM247.701 38.792C247.397 40.248 246.149 41.208 244.341 41.208C241.765 41.208 240.533 39.336 240.533 36.824C240.533 34.328 241.877 32.36 244.293 32.36C246.821 32.36 247.813 34.312 247.813 36.44V37.176H242.005C242.101 38.92 242.805 40.104 244.389 40.104C245.797 40.104 246.165 39.288 246.309 38.792H247.701ZM252.258 39.976C253.33 39.976 254.658 39.256 254.658 37.176V36.984C252.834 37.064 251.794 37.208 251.25 37.608C250.93 37.848 250.786 38.2 250.786 38.648C250.786 39.512 251.346 39.976 252.258 39.976ZM251.138 34.872H249.762C249.794 33.384 250.93 32.36 252.946 32.36C255.042 32.36 256.066 33.24 256.066 35.496V38.936C256.066 39.608 256.21 39.88 256.834 39.896V41.064H256.658C255.314 41.064 254.866 40.584 254.722 39.576H254.69C254.242 40.568 253.234 41.144 251.986 41.144C250.306 41.144 249.314 40.232 249.314 38.728C249.314 37.8 249.714 37.032 250.578 36.6C251.458 36.136 252.77 35.976 254.658 35.912V35.544C254.658 34.024 254.082 33.432 252.898 33.432C251.65 33.432 251.186 34.152 251.138 34.872ZM259.39 30.12H260.702V32.568H262.782V33.672H260.702V38.648C260.702 39.544 261.07 39.896 261.982 39.896C262.414 39.896 262.91 39.816 262.91 39.816V41.032C262.91 41.032 262.318 41.128 261.582 41.128C259.934 41.128 259.278 40.328 259.278 38.888V33.672H257.742V32.616H257.998C259.134 32.616 259.39 32.344 259.39 30.728V30.12ZM266.209 32.568V37.752C266.209 38.36 266.209 39.064 266.513 39.464C266.801 39.848 267.249 40.024 267.809 40.024C269.377 40.024 270.113 38.984 270.113 37.128V32.568H271.553V41H270.177V39.56H270.145C269.761 40.424 268.833 41.208 267.489 41.208C265.873 41.208 264.785 40.424 264.785 38.44V32.568H266.209ZM274.551 41V32.568H275.911V34.152H275.943C276.327 33.272 277.383 32.408 278.615 32.408H278.759V33.912H278.487C276.983 33.912 275.991 34.776 275.991 36.408V41H274.551ZM285.701 36.04V35.944C285.669 34.536 285.109 33.448 283.637 33.448C282.293 33.448 281.557 34.504 281.381 36.04H285.701ZM287.061 38.792C286.757 40.248 285.509 41.208 283.701 41.208C281.125 41.208 279.893 39.336 279.893 36.824C279.893 34.328 281.237 32.36 283.653 32.36C286.181 32.36 287.173 34.312 287.173 36.44V37.176H281.365C281.461 38.92 282.165 40.104 283.749 40.104C285.157 40.104 285.525 39.288 285.669 38.792H287.061ZM288.866 41V39.048H290.818V41H288.866Z" fill="#BBB5AE"/>
<path d="M147.5 68C147.5 63.8579 150.858 60.5 155 60.5H175C179.142 60.5 182.5 63.8579 182.5 68V84C182.5 88.1421 179.142 91.5 175 91.5H155C150.858 91.5 147.5 88.1421 147.5 84V68Z" stroke="white"/>
<path d="M168.167 73.1667V71.0001C168.166 70.2489 167.867 69.5287 167.336 68.9975C166.805 68.4664 166.084 68.1676 165.333 68.1667H164.667C163.915 68.1676 163.195 68.4664 162.664 68.9975C162.133 69.5287 161.834 70.2489 161.833 71.0001V73.1667H159.167V81.0001C159.167 81.7513 159.466 82.4715 159.997 83.0026C160.528 83.5338 161.249 83.8326 162 83.8334H168C168.751 83.8326 169.471 83.5338 170.002 83.0026C170.534 82.4715 170.832 81.7513 170.833 81.0001V73.1667H168.167ZM162.833 71.0001C162.834 70.514 163.027 70.048 163.371 69.7043C163.714 69.3606 164.18 69.1673 164.667 69.1667H165.333C165.819 69.1673 166.285 69.3606 166.629 69.7043C166.973 70.048 167.166 70.514 167.167 71.0001V73.1667H162.833V71.0001ZM169.833 81.0001C169.833 81.4861 169.639 81.9522 169.296 82.2959C168.952 82.6396 168.486 82.8329 168 82.8334H162C161.514 82.8329 161.048 82.6396 160.704 82.2959C160.36 81.9522 160.167 81.4861 160.167 81.0001V74.1667H169.833V81.0001Z" fill="white"/>
<path d="M165 76.5001C164.207 76.5001 163.667 76.9834 163.667 77.8334C163.667 78.4887 163.989 78.9252 164.5 79.0911V80.5001H165.5V79.0911C166.011 78.9244 166.333 78.4887 166.333 77.8334C166.333 76.9834 165.793 76.5001 165 76.5001Z" fill="white"/>
</svg>
